<?xml version="1.0" encoding="UTF-8" standalone="no"?>
<!-- Created with Inkscape (http://www.inkscape.org/) -->

<svg
   xmlns:dc="http://purl.org/dc/elements/1.1/"
   xmlns:cc="http://creativecommons.org/ns#"
   xmlns:rdf="http://www.w3.org/1999/02/22-rdf-syntax-ns#"
   xmlns:svg="http://www.w3.org/2000/svg"
   xmlns="http://www.w3.org/2000/svg"
   xmlns:xlink="http://www.w3.org/1999/xlink"
   xmlns:sodipodi="http://sodipodi.sourceforge.net/DTD/sodipodi-0.dtd"
   xmlns:inkscape="http://www.inkscape.org/namespaces/inkscape"
   width="342.00302mm"
   height="57.380436mm"
   viewBox="0 0 342.00302 57.380436"
   version="1.1"
   id="svg6126"
   inkscape:version="0.92.3 (2405546, 2018-03-11)"
   sodipodi:docname="name.svg">
  <defs
     id="defs6120">
    <linearGradient
       inkscape:collect="always"
       xlink:href="#linearGradient5860"
       id="linearGradient5878"
       x1="-6945.1206"
       y1="1072.0175"
       x2="-5945.521"
       y2="1072.0175"
       gradientUnits="userSpaceOnUse" />
    <linearGradient
       inkscape:collect="always"
       id="linearGradient5860">
      <stop
         style="stop-color:#35e15d;stop-opacity:1;"
         offset="0"
         id="stop5856" />
      <stop
         style="stop-color:#3bfd68;stop-opacity:0.98039216"
         offset="1"
         id="stop5858" />
    </linearGradient>
    <linearGradient
       inkscape:collect="always"
       xlink:href="#linearGradient5860"
       id="linearGradient5870"
       x1="-6085.8311"
       y1="858.55078"
       x2="-6812.6797"
       y2="1198.4746"
       gradientUnits="userSpaceOnUse" />
    <linearGradient
       inkscape:collect="always"
       xlink:href="#linearGradient21021"
       id="linearGradient5854"
       gradientUnits="userSpaceOnUse"
       x1="-6049.9863"
       y1="848.8443"
       x2="-6799.769"
       y2="1199.4939" />
    <linearGradient
       inkscape:collect="always"
       id="linearGradient21021">
      <stop
         style="stop-color:#1a1a1a;stop-opacity:0.21301775"
         offset="0"
         id="stop21023" />
      <stop
         style="stop-color:#1a1a1a;stop-opacity:0;"
         offset="1"
         id="stop21025" />
    </linearGradient>
    <linearGradient
       gradientTransform="matrix(0.02184128,0,0,0.02184128,254.36363,1274.6217)"
       inkscape:collect="always"
       xlink:href="#linearGradient5860"
       id="linearGradient5862-2"
       x1="-153.17377"
       y1="-27976.686"
       x2="-153.17377"
       y2="-29176.623"
       gradientUnits="userSpaceOnUse" />
    <linearGradient
       inkscape:collect="always"
       xlink:href="#linearGradient5860"
       id="linearGradient9115"
       gradientUnits="userSpaceOnUse"
       gradientTransform="matrix(0.02184128,0,0,0.02184128,254.36363,1274.6217)"
       x1="-153.17377"
       y1="-27976.686"
       x2="-153.17377"
       y2="-29176.623" />
    <linearGradient
       inkscape:collect="always"
       xlink:href="#linearGradient5860"
       id="linearGradient9117"
       gradientUnits="userSpaceOnUse"
       gradientTransform="matrix(0.02184128,0,0,0.02184128,254.36363,1274.6217)"
       x1="-153.17377"
       y1="-27976.686"
       x2="-153.17377"
       y2="-29176.623" />
    <linearGradient
       inkscape:collect="always"
       xlink:href="#linearGradient5860"
       id="linearGradient9119"
       gradientUnits="userSpaceOnUse"
       gradientTransform="matrix(0.02184128,0,0,0.02184128,254.36363,1274.6217)"
       x1="-153.17377"
       y1="-27976.686"
       x2="-153.17377"
       y2="-29176.623" />
    <linearGradient
       inkscape:collect="always"
       xlink:href="#linearGradient5860"
       id="linearGradient9121"
       gradientUnits="userSpaceOnUse"
       gradientTransform="matrix(0.02184128,0,0,0.02184128,254.36363,1274.6217)"
       x1="-153.17377"
       y1="-27976.686"
       x2="-153.17377"
       y2="-29176.623" />
    <linearGradient
       inkscape:collect="always"
       xlink:href="#linearGradient5860"
       id="linearGradient9123"
       gradientUnits="userSpaceOnUse"
       gradientTransform="matrix(0.02184128,0,0,0.02184128,254.36363,1274.6217)"
       x1="-153.17377"
       y1="-27976.686"
       x2="-153.17377"
       y2="-29176.623" />
    <linearGradient
       inkscape:collect="always"
       xlink:href="#linearGradient5860"
       id="linearGradient9125"
       gradientUnits="userSpaceOnUse"
       gradientTransform="matrix(0.02184128,0,0,0.02184128,254.36363,1274.6217)"
       x1="-153.17377"
       y1="-27976.686"
       x2="-153.17377"
       y2="-29176.623" />
    <linearGradient
       inkscape:collect="always"
       xlink:href="#linearGradient5860"
       id="linearGradient9127"
       gradientUnits="userSpaceOnUse"
       gradientTransform="matrix(0.02184128,0,0,0.02184128,254.36363,1274.6217)"
       x1="-153.17377"
       y1="-27976.686"
       x2="-153.17377"
       y2="-29176.623" />
    <linearGradient
       inkscape:collect="always"
       xlink:href="#linearGradient5860"
       id="linearGradient9129"
       gradientUnits="userSpaceOnUse"
       gradientTransform="matrix(0.02184128,0,0,0.02184128,254.36363,1274.6217)"
       x1="-153.17377"
       y1="-27976.686"
       x2="-153.17377"
       y2="-29176.623" />
    <linearGradient
       inkscape:collect="always"
       xlink:href="#linearGradient5860"
       id="linearGradient9131"
       gradientUnits="userSpaceOnUse"
       gradientTransform="matrix(0.02184128,0,0,0.02184128,254.36363,1274.6217)"
       x1="-153.17377"
       y1="-27976.686"
       x2="-153.17377"
       y2="-29176.623" />
    <linearGradient
       inkscape:collect="always"
       xlink:href="#linearGradient5860"
       id="linearGradient9133"
       gradientUnits="userSpaceOnUse"
       gradientTransform="matrix(0.02184128,0,0,0.02184128,254.36363,1274.6217)"
       x1="-153.17377"
       y1="-27976.686"
       x2="-153.17377"
       y2="-29176.623" />
    <linearGradient
       inkscape:collect="always"
       xlink:href="#linearGradient5860"
       id="linearGradient9135"
       gradientUnits="userSpaceOnUse"
       gradientTransform="matrix(0.02184128,0,0,0.02184128,254.36363,1274.6217)"
       x1="-153.17377"
       y1="-27976.686"
       x2="-153.17377"
       y2="-29176.623" />
    <linearGradient
       inkscape:collect="always"
       xlink:href="#linearGradient5860"
       id="linearGradient9137"
       gradientUnits="userSpaceOnUse"
       gradientTransform="matrix(0.02184128,0,0,0.02184128,254.36363,1274.6217)"
       x1="-153.17377"
       y1="-27976.686"
       x2="-153.17377"
       y2="-29176.623" />
  </defs>
  <sodipodi:namedview
     id="base"
     pagecolor="#ffffff"
     bordercolor="#666666"
     borderopacity="1.0"
     inkscape:pageopacity="0.0"
     inkscape:pageshadow="2"
     inkscape:zoom="0.98994949"
     inkscape:cx="603.93123"
     inkscape:cy="112.86853"
     inkscape:document-units="mm"
     inkscape:current-layer="g4906"
     showgrid="false"
     fit-margin-top="0"
     fit-margin-left="0"
     fit-margin-right="0"
     fit-margin-bottom="0"
     inkscape:window-width="1920"
     inkscape:window-height="1017"
     inkscape:window-x="-8"
     inkscape:window-y="-8"
     inkscape:window-maximized="1" />
  <metadata
     id="metadata6123">
    <rdf:RDF>
      <cc:Work
         rdf:about="">
        <dc:format>image/svg+xml</dc:format>
        <dc:type
           rdf:resource="http://purl.org/dc/dcmitype/StillImage" />
        <dc:title></dc:title>
      </cc:Work>
    </rdf:RDF>
  </metadata>
  <g
     inkscape:label="Camada 1"
     inkscape:groupmode="layer"
     id="layer1"
     transform="translate(118.08484,-157.94072)">
    <g
       id="g4906"
       transform="matrix(1.8911659,0,0,1.8911659,-370.25423,-1045.5425)">
      <g
         transform="matrix(0.03750042,0,0,0.03750042,269.00675,766.44509)"
         id="g5844">
        <path
           sodipodi:type="star"
           style="fill:url(#linearGradient5878);fill-opacity:1;stroke:none"
           id="path5838"
           sodipodi:sides="3"
           sodipodi:cx="-6368.0015"
           sodipodi:cy="1149.3368"
           sodipodi:r1="597.47766"
           sodipodi:r2="298.73886"
           sodipodi:arg1="0.78539816"
           sodipodi:arg2="1.8325957"
           inkscape:flatsided="false"
           inkscape:rounded="0"
           inkscape:randomized="0"
           d="m -5945.521,1571.8173 -499.7998,-133.9209 -499.7998,-133.921 365.8789,-365.87888 365.8788,-365.87883 133.921,499.79981 z"
           inkscape:transform-center-x="-75.74115"
           inkscape:transform-center-y="-84.184641"
           transform="matrix(0.81138799,-0.29429529,0.29429529,0.81138799,1633.7128,-5761.4563)" />
        <path
           transform="matrix(-0.81138799,0.29429529,-0.29429529,-0.81138799,-7547.1953,-366.65602)"
           inkscape:transform-center-y="84.184644"
           inkscape:transform-center-x="75.74155"
           d="m -5945.521,1571.8173 -499.7998,-133.9209 -499.7998,-133.921 365.8789,-365.87888 365.8788,-365.87883 133.921,499.79981 z"
           inkscape:randomized="0"
           inkscape:rounded="0"
           inkscape:flatsided="false"
           sodipodi:arg2="1.8325957"
           sodipodi:arg1="0.78539816"
           sodipodi:r2="298.73886"
           sodipodi:r1="597.47766"
           sodipodi:cy="1149.3368"
           sodipodi:cx="-6368.0015"
           sodipodi:sides="3"
           id="path5840"
           style="fill:url(#linearGradient5870);fill-opacity:1;stroke:none"
           sodipodi:type="star" />
        <path
           transform="matrix(0.7263396,-0.26344772,0.26344772,0.7263396,1176.5447,-5444.4718)"
           inkscape:transform-center-y="-75.360601"
           inkscape:transform-center-x="-67.802193"
           d="m -5945.521,1571.8173 -499.7998,-133.9209 -499.7998,-133.921 365.8789,-365.87888 365.8788,-365.87883 133.921,499.79981 z"
           inkscape:randomized="0"
           inkscape:rounded="0"
           inkscape:flatsided="false"
           sodipodi:arg2="1.8325957"
           sodipodi:arg1="0.78539816"
           sodipodi:r2="298.73886"
           sodipodi:r1="597.47766"
           sodipodi:cy="1149.3368"
           sodipodi:cx="-6368.0015"
           sodipodi:sides="3"
           id="path5842"
           style="fill:url(#linearGradient5854);fill-opacity:1;stroke:none"
           sodipodi:type="star" />
      </g>
      <g
         aria-label="ErickAlmeida"
         style="font-style:normal;font-weight:normal;font-size:0.47633386px;line-height:0%;font-family:sans-serif;letter-spacing:0px;word-spacing:0px;opacity:0.98000004;fill:url(#linearGradient5862-2);fill-opacity:1;stroke:none;stroke-width:0.03969448px;stroke-linecap:butt;stroke-linejoin:miter;stroke-opacity:1"
         id="text5852-1"
         transform="translate(0,1.480146)">
        <path
           d="m 187.85313,661.93878 v -21.81092 h 13.35803 v 1.1723 h -12.06233 v 9.06989 h 10.82833 v 1.1723 h -10.82833 v 9.19328 h 12.49423 v 1.20315 z"
           style="font-style:normal;font-variant:normal;font-weight:300;font-stretch:normal;font-family:'Erick Sans';-inkscape-font-specification:'Erick Sans Light';letter-spacing:-2.83956289px;fill:url(#linearGradient9115);fill-opacity:1;stroke-width:0.03969448px"
           id="path6731"
           inkscape:connector-curvature="0" />
        <path
           d="m 207.5673,651.0179 q -0.95635,0.0308 -1.851,0.33935 -0.8638,0.3085 -1.5425,0.89465 -0.6787,0.5553 -1.07975,1.35739 -0.40105,0.77125 -0.40105,1.7276 v 6.60189 h -1.0489 v -11.93893 h 0.89465 q 0,0.1234 0,0.58615 0.0309,0.46275 0.0309,0.9872 0,0.52445 0,0.9872 0.0308,0.43189 0.0308,0.52444 0.70955,-1.54249 2.12865,-2.40629 1.44995,-0.89465 3.0233,-0.9255 z"
           style="font-style:normal;font-variant:normal;font-weight:300;font-stretch:normal;font-family:'Erick Sans';-inkscape-font-specification:'Erick Sans Light';letter-spacing:-2.83956289px;fill:url(#linearGradient9117);fill-opacity:1;stroke-width:0.03969448px"
           id="path6733"
           inkscape:connector-curvature="0" />
        <path
           d="m 206.80962,645.83511 q 0,-0.40105 0.27765,-0.6787 0.27765,-0.27765 0.64785,-0.27765 0.33935,0 0.617,0.27765 0.27765,0.27765 0.27765,0.6787 0,0.40104 -0.27765,0.67869 -0.27765,0.2468 -0.617,0.2468 -0.3702,0 -0.64785,-0.2468 -0.27765,-0.27765 -0.27765,-0.67869 z m 1.4191,16.10367 h -1.0489 v -11.93893 h 1.0489 z"
           style="font-style:normal;font-variant:normal;font-weight:300;font-stretch:normal;font-family:'Erick Sans';-inkscape-font-specification:'Erick Sans Light';letter-spacing:-2.83956289px;fill:url(#linearGradient9119);fill-opacity:1;stroke-width:0.03969448px"
           id="path6735"
           inkscape:connector-curvature="0" />
        <path
           d="m 218.21744,659.99523 q 0.1851,0.1851 0.33935,0.40105 0.1851,0.1851 0.33935,0.40105 -0.8021,0.617 -1.7893,0.9872 -0.9872,0.3702 -2.12865,0.3702 -1.2957,0 -2.43715,-0.4936 -1.14144,-0.4936 -2.00524,-1.32655 -0.83295,-0.83294 -1.32655,-1.94354 -0.46275,-1.14145 -0.46275,-2.43715 0,-1.2957 0.46275,-2.43715 0.4936,-1.14144 1.32655,-1.97439 0.8638,-0.83295 2.00524,-1.32655 1.14145,-0.4936 2.43715,-0.4936 1.14145,0 2.12865,0.3702 1.01805,0.3702 1.82015,0.9872 -0.15425,0.21595 -0.33935,0.40105 -0.1851,0.1851 -0.3702,0.4319 -0.64785,-0.52445 -1.4808,-0.83295 -0.83295,-0.3085 -1.75845,-0.3085 -1.1106,0 -2.06695,0.40105 -0.92549,0.40105 -1.63504,1.1106 -0.6787,0.67869 -1.07975,1.63504 -0.40105,0.95635 -0.40105,2.0361 0,1.07975 0.40105,2.0361 0.40105,0.9255 1.07975,1.63505 0.70955,0.67869 1.63504,1.07974 0.95635,0.40105 2.06695,0.40105 0.9255,0 1.75845,-0.27765 0.83295,-0.3085 1.4808,-0.83295 z"
           style="font-style:normal;font-variant:normal;font-weight:300;font-stretch:normal;font-family:'Erick Sans';-inkscape-font-specification:'Erick Sans Light';letter-spacing:-2.83956289px;fill:url(#linearGradient9121);fill-opacity:1;stroke-width:0.03969448px"
           id="path6737"
           inkscape:connector-curvature="0" />
        <path
           d="m 227.05121,649.69135 0.64785,0.6787 -4.50409,4.25729 q 1.35739,1.851 2.68394,3.67115 1.32655,1.78929 2.6531,3.64029 h -1.26485 q -1.20315,-1.6659 -2.43715,-3.30094 -1.20315,-1.63505 -2.40629,-3.30095 l -2.1595,2.0361 v 4.56579 h -1.0489 v -23.38426 h 1.0489 v 17.46107 q 1.75845,-1.63505 3.39349,-3.14669 1.63505,-1.5425 3.3935,-3.17755 z"
           style="font-style:normal;font-variant:normal;font-weight:300;font-stretch:normal;font-family:'Erick Sans';-inkscape-font-specification:'Erick Sans Light';letter-spacing:-2.83956289px;fill:url(#linearGradient9123);fill-opacity:1;stroke-width:0.03969448px"
           id="path6739"
           inkscape:connector-curvature="0" />
        <path
           d="m 242.49844,661.93878 q -0.0925,-0.21595 -0.33935,-0.77125 -0.21595,-0.5553 -0.5553,-1.3574 -0.33935,-0.80209 -0.7404,-1.75844 -0.40105,-0.9872 -0.83295,-2.0361 h -7.74334 l -2.46799,5.92319 h -3.73285 q 0.1234,-0.27765 0.58615,-1.3574 0.46275,-1.11059 1.14145,-2.71479 0.70955,-1.63505 1.5425,-3.60945 0.8638,-2.00524 1.75844,-4.07219 0.89465,-2.06695 1.7276,-4.04135 0.8638,-2.00524 1.5425,-3.60944 0.70955,-1.63505 1.1723,-2.7148 0.46275,-1.11059 0.58615,-1.38824 0.1234,0.27765 0.58615,1.38824 0.4936,1.07975 1.17229,2.7148 0.70955,1.6042 1.5425,3.60944 0.8638,1.9744 1.75845,4.04135 0.89465,2.06695 1.7276,4.07219 0.8638,1.9744 1.54249,3.60945 0.70955,1.6042 1.1723,2.71479 0.46275,1.07975 0.58615,1.3574 z m -8.91564,-9.10073 h 5.12109 l -2.22119,-5.3679 q -0.0308,-0.0308 -0.15425,-0.40105 -0.1234,-0.40105 -0.1851,-0.70955 -0.0617,0.3085 -0.1851,0.70955 -0.1234,0.3702 -0.1234,0.40105 z"
           style="font-style:normal;font-variant:normal;font-weight:bold;font-stretch:normal;font-family:'Erick Sans';-inkscape-font-specification:'Erick Sans Bold';letter-spacing:-2.83956289px;fill:url(#linearGradient9125);fill-opacity:1;stroke-width:0.03969448px"
           id="path6741"
           inkscape:connector-curvature="0" />
        <path
           d="m 248.12237,661.93878 h -2.93075 v -24.09381 h 2.93075 z"
           style="font-style:normal;font-variant:normal;font-weight:bold;font-stretch:normal;font-family:'Erick Sans';-inkscape-font-specification:'Erick Sans Bold';letter-spacing:-2.83956289px;fill:url(#linearGradient9127);fill-opacity:1;stroke-width:0.03969448px"
           id="path6743"
           inkscape:connector-curvature="0" />
        <path
           d="m 248.91972,648.82755 h 2.62225 q 0.0309,0.5553 0.0617,0.9872 0.0309,0.4319 0.0617,0.83295 0.0309,0.3702 0.0617,0.7404 0.0309,0.3702 0.0617,0.8021 0.7404,-1.6659 1.851,-2.6531 1.14144,-1.01805 3.11584,-1.0489 1.94355,0 3.085,0.9872 1.17229,0.95635 1.38824,2.5297 0.3702,-0.77125 0.83295,-1.4191 0.46275,-0.64785 1.01805,-1.1106 0.58615,-0.46275 1.32655,-0.70955 0.7404,-0.27765 1.7276,-0.27765 2.03609,0 3.23924,1.1106 1.20315,1.07975 1.26485,2.8382 v 9.50178 h -2.9616 v -8.11354 q -0.0617,-0.95634 -0.64784,-1.63504 -0.58615,-0.70955 -1.94355,-0.77125 -1.82015,0 -2.8382,1.20315 -0.9872,1.17229 -0.9872,3.02329 v 6.29339 h -2.96159 v -8.11354 q -0.0617,-0.95634 -0.6787,-1.63504 -0.58615,-0.70955 -1.9127,-0.77125 -1.82014,0 -2.83819,1.20315 -0.9872,1.17229 -0.9872,2.99244 v 6.32424 h -2.9616 z"
           style="font-style:normal;font-variant:normal;font-weight:bold;font-stretch:normal;font-family:'Erick Sans';-inkscape-font-specification:'Erick Sans Bold';letter-spacing:-2.83956289px;fill:url(#linearGradient9129);fill-opacity:1;stroke-width:0.03969448px"
           id="path6745"
           inkscape:connector-curvature="0" />
        <path
           d="m 282.58674,660.42713 q -0.95634,0.8638 -2.31374,1.3574 -1.3574,0.4936 -2.7765,0.4936 -1.44995,0 -2.74564,-0.52445 -1.26485,-0.5553 -2.2212,-1.4808 -0.9255,-0.95634 -1.4808,-2.19034 -0.5553,-1.26485 -0.5553,-2.68395 0,-1.4191 0.5553,-2.65309 0.5553,-1.26485 1.4808,-2.19035 0.95635,-0.95635 2.19035,-1.4808 1.26484,-0.5553 2.65309,-0.5553 2.2212,0 3.8871,1.3574 1.69674,1.32655 2.40629,3.51689 -0.9255,0.33935 -2.15949,0.83295 -1.20315,0.46275 -2.5297,0.9872 -1.32655,0.52445 -2.6531,1.07975 -1.32655,0.52445 -2.43714,0.95635 0.52445,0.95635 1.44994,1.5425 0.9255,0.58615 2.0978,0.58615 0.8021,0 1.6042,-0.27765 0.83295,-0.3085 1.3574,-0.8021 z m -2.59139,-7.71248 q -0.3702,-0.6787 -1.1106,-0.9872 -0.7404,-0.33935 -1.44995,-0.33935 -0.83295,0 -1.57335,0.33935 -0.7404,0.3085 -1.26484,0.8638 -0.52445,0.52444 -0.83295,1.23399 -0.3085,0.6787 -0.3085,1.4191 v 0.1234 q 0.77125,-0.3085 1.63504,-0.64785 0.89465,-0.3702 1.75845,-0.7404 0.89465,-0.3702 1.69675,-0.6787 0.8021,-0.33935 1.44995,-0.58614 z"
           style="font-style:normal;font-variant:normal;font-weight:bold;font-stretch:normal;font-family:'Erick Sans';-inkscape-font-specification:'Erick Sans Bold';letter-spacing:-2.83956289px;fill:url(#linearGradient9131);fill-opacity:1;stroke-width:0.03969448px"
           id="path6747"
           inkscape:connector-curvature="0" />
        <path
           d="m 282.78928,643.73731 q 0,-0.8021 0.58615,-1.32655 0.58615,-0.52445 1.26484,-0.52445 0.6787,0 1.234,0.52445 0.58615,0.52445 0.58615,1.32655 0,0.83295 -0.58615,1.3574 -0.5553,0.4936 -1.234,0.4936 -0.67869,0 -1.26484,-0.4936 -0.58615,-0.52445 -0.58615,-1.3574 z m 3.30094,18.20147 h -2.96159 v -13.11123 h 2.96159 z"
           style="font-style:normal;font-variant:normal;font-weight:bold;font-stretch:normal;font-family:'Erick Sans';-inkscape-font-specification:'Erick Sans Bold';letter-spacing:-2.83956289px;fill:url(#linearGradient9133);fill-opacity:1;stroke-width:0.03969448px"
           id="path6749"
           inkscape:connector-curvature="0" />
        <path
           d="m 286.11488,655.39859 q 0,-1.5425 0.4936,-2.80734 0.52445,-1.26485 1.4191,-2.1595 0.9255,-0.9255 2.12864,-1.4191 1.234,-0.52445 2.68395,-0.52445 0.9872,0 1.7276,0.21595 0.7404,0.21595 1.26485,0.52445 0.52445,0.3085 0.83295,0.6787 0.33934,0.33935 0.52444,0.58615 v -12.64848 h 2.9616 v 24.09381 h -2.9616 v -0.8638 q 0,-0.15425 0.0309,-0.33935 0.0308,-0.1851 0.0308,-0.27765 -0.27765,0.27765 -0.67869,0.617 -0.40105,0.3085 -0.95635,0.58615 -0.5553,0.27765 -1.26485,0.4319 -0.6787,0.1851 -1.57335,0.1851 -1.57335,0 -2.83819,-0.52445 -1.234,-0.5553 -2.0978,-1.4808 -0.83295,-0.95634 -1.2957,-2.19034 -0.4319,-1.26485 -0.4319,-2.68395 z m 2.9616,-0.0617 q 0,0.8638 0.27765,1.6042 0.3085,0.7404 0.83294,1.2957 0.5553,0.52445 1.2957,0.83295 0.7404,0.3085 1.63505,0.3085 0.89465,0 1.63505,-0.3085 0.77125,-0.3085 1.2957,-0.8638 0.5553,-0.5553 0.83294,-1.2957 0.3085,-0.7404 0.3085,-1.57335 0,-0.83295 -0.3085,-1.5425 -0.27764,-0.7404 -0.83294,-1.26484 -0.52445,-0.52445 -1.2957,-0.83295 -0.7404,-0.3085 -1.63505,-0.3085 -0.89465,0 -1.63505,0.3085 -0.7404,0.27765 -1.2957,0.83295 -0.52444,0.52444 -0.83294,1.26484 -0.27765,0.70955 -0.27765,1.5425 z"
           style="font-style:normal;font-variant:normal;font-weight:bold;font-stretch:normal;font-family:'Erick Sans';-inkscape-font-specification:'Erick Sans Bold';letter-spacing:-2.83956289px;fill:url(#linearGradient9135);fill-opacity:1;stroke-width:0.03969448px"
           id="path6751"
           inkscape:connector-curvature="0" />
        <path
           d="m 300.11554,655.52199 q 0,-1.4191 0.5553,-2.68394 0.5553,-1.2957 1.4808,-2.25205 0.95635,-0.95635 2.19034,-1.51165 1.26485,-0.58615 2.6531,-0.58615 0.9255,0 1.6659,0.2468 0.7404,0.21595 1.26485,0.52445 0.55529,0.3085 0.86379,0.64785 0.3085,0.3085 0.40105,0.4936 l 0.1234,-1.57335 h 2.86905 v 13.11123 h -2.99245 v -0.8638 q 0,-0.15425 0,-0.27765 0.0308,-0.15425 0.0308,-0.21595 -0.1234,0.15425 -0.4319,0.46275 -0.3085,0.27765 -0.83294,0.5553 -0.52445,0.27765 -1.26485,0.46275 -0.70955,0.21595 -1.6659,0.21595 -1.51165,0 -2.7765,-0.5553 -1.26484,-0.5553 -2.19034,-1.4808 -0.9255,-0.92549 -1.44995,-2.12864 -0.4936,-1.234 -0.4936,-2.5914 z m 2.99245,-0.1851 q 0,0.8638 0.27765,1.6042 0.30849,0.7404 0.83294,1.2957 0.5553,0.52445 1.2957,0.83295 0.7404,0.3085 1.63505,0.3085 0.89465,0 1.63505,-0.3085 0.7404,-0.3085 1.26485,-0.8638 0.55529,-0.5553 0.83294,-1.2957 0.3085,-0.7404 0.3085,-1.57335 0,-0.83295 -0.3085,-1.5425 -0.27765,-0.7404 -0.83294,-1.26484 -0.52445,-0.52445 -1.26485,-0.83295 -0.7404,-0.3085 -1.63505,-0.3085 -0.89465,0 -1.63505,0.3085 -0.7404,0.27765 -1.2957,0.83295 -0.52445,0.52444 -0.83294,1.26484 -0.27765,0.70955 -0.27765,1.5425 z"
           style="font-style:normal;font-variant:normal;font-weight:bold;font-stretch:normal;font-family:'Erick Sans';-inkscape-font-specification:'Erick Sans Bold';letter-spacing:-2.83956289px;fill:url(#linearGradient9137);fill-opacity:1;stroke-width:0.03969448px"
           id="path6753"
           inkscape:connector-curvature="0" />
      </g>
    </g>
  </g>
</svg>
