<svg width="512" height="512" viewBox="0 0 512 512" fill="none" xmlns="http://www.w3.org/2000/svg">
<circle cx="256" cy="256" r="256" fill="#E31B23"/>
<path d="M152.853 235.219C151.876 235.259 150.901 235.348 149.933 235.484C142.302 236.562 135.391 240.567 130.661 246.65C125.931 252.734 123.753 260.419 124.589 268.08C125.359 275.138 128.634 281.686 133.82 286.535C139.006 291.384 145.759 294.212 152.853 294.507V235.219L152.853 235.219Z" fill="#6C0D11"/>
<path d="M354.367 235.218V294.506C354.717 294.491 355.066 294.471 355.414 294.444C363.098 293.852 370.249 290.295 375.356 284.524C380.462 278.753 383.124 271.222 382.776 263.524L382.367 259.777C381.206 253.102 377.796 247.024 372.702 242.556C367.608 238.088 361.138 235.498 354.368 235.217L354.367 235.218Z" fill="#6C0D11"/>
<path d="M188.02 138.766C187.587 138.762 187.154 138.791 186.725 138.852C184.466 139.171 182.419 140.357 181.018 142.158C179.617 143.96 178.973 146.236 179.22 148.504C179.415 150.287 180.15 151.968 181.328 153.321C182.506 154.674 184.07 155.634 185.809 156.072L180.698 192.192H176.829C163.54 192.192 152.84 202.89 152.84 216.18V313.538C152.84 326.827 163.539 337.527 176.829 337.527H330.377C343.666 337.527 354.365 326.828 354.365 313.538V216.18C354.365 202.891 343.667 192.192 330.377 192.192H195.62L190.221 156.043C192.158 155.527 193.86 154.365 195.045 152.748C196.23 151.132 196.827 149.159 196.737 147.157L196.616 146.048C196.263 144.02 195.21 142.181 193.64 140.85C192.07 139.52 190.083 138.782 188.025 138.767L188.02 138.766Z" fill="white"/>
<path d="M227.678 217.806C212.409 217.806 199.961 230.253 199.961 245.523C199.961 260.793 212.408 273.241 227.678 273.241C242.947 273.241 255.395 260.793 255.395 245.523C255.395 233.678 265.007 224.067 276.852 224.067C288.697 224.067 298.308 233.678 298.308 245.523C298.308 257.369 288.697 266.98 276.852 266.98C271.11 266.98 265.738 264.764 261.679 260.705C260.472 259.499 258.469 259.499 257.263 260.705C256.056 261.912 256.056 263.915 257.263 265.122C262.488 270.348 269.461 273.24 276.852 273.24C292.121 273.24 304.569 260.792 304.569 245.522C304.569 230.253 292.122 217.805 276.852 217.805C261.583 217.805 249.135 230.252 249.135 245.522C249.135 257.368 239.523 266.979 227.678 266.979C215.833 266.979 206.222 257.368 206.222 245.522C206.222 233.677 215.833 224.066 227.678 224.066C231.954 224.066 236.071 225.314 239.606 227.683C239.607 227.683 239.609 227.683 239.61 227.683C240.785 228.469 241.884 229.378 242.879 230.378C242.88 230.378 242.882 230.378 242.883 230.378C244.091 231.585 246.091 231.598 247.304 230.386C248.517 229.179 248.519 227.172 247.314 225.961C246.028 224.669 244.605 223.501 243.09 222.485C238.525 219.427 233.187 217.805 227.678 217.805L227.678 217.806Z" fill="#E31B23"/>
<path d="M221.996 306.209C221.241 306.21 220.518 306.511 219.984 307.045C219.451 307.579 219.152 308.303 219.152 309.058C219.153 309.812 219.453 310.534 219.986 311.067C220.519 311.6 221.242 311.9 221.996 311.901H284.237C284.991 311.9 285.714 311.6 286.247 311.067C286.78 310.534 287.08 309.812 287.081 309.058C287.081 308.303 286.782 307.579 286.249 307.045C285.716 306.511 284.992 306.21 284.237 306.209H221.996Z" fill="#E31B23"/>
</svg>
