<svg width="158" height="14" viewBox="0 0 158 14" fill="none" xmlns="http://www.w3.org/2000/svg">
<path d="M0 6.67653C0 5.39637 0.279645 4.25294 0.838938 3.24624C1.39823 2.22709 2.16259 1.43786 3.13203 0.87857C4.10146 0.306855 5.18275 0.0209961 6.3759 0.0209961C7.83006 0.0209961 9.07287 0.369003 10.1044 1.065C11.1484 1.74858 11.9065 2.718 12.3788 3.97329H10.8501C10.4772 3.10329 9.9055 2.42593 9.13494 1.9412C8.3768 1.44405 7.45708 1.19548 6.37579 1.19548C5.41878 1.19548 4.55498 1.4192 3.7844 1.86663C3.02626 2.31407 2.42969 2.95414 1.99468 3.78687C1.55967 4.6196 1.34216 5.58282 1.34216 6.67653C1.34216 7.77025 1.55967 8.73347 1.99468 9.5662C2.42969 10.3865 3.02626 11.0203 3.7844 11.4678C4.55498 11.9152 5.41878 12.1389 6.37579 12.1389C7.45708 12.1389 8.3768 11.8966 9.13494 11.4118C9.90552 10.9271 10.4772 10.2559 10.8501 9.39837H12.3788C11.9065 10.6412 11.1484 11.6045 10.1044 12.288C9.06033 12.9716 7.81751 13.3134 6.3759 13.3134C5.18275 13.3134 4.10146 13.0337 3.13203 12.4745C2.16259 11.9027 1.39823 11.1135 0.838938 10.1068C0.279645 9.10006 0 7.95664 0 6.6765V6.67653Z" fill="#E31B23"/>
<path d="M20.824 13.3298C19.6185 13.3298 18.5247 13.0501 17.5429 12.4908C16.561 11.9191 15.7842 11.1299 15.2125 10.1232C14.6532 9.10403 14.3735 7.95438 14.3735 6.67422C14.3735 5.39405 14.6532 4.25062 15.2125 3.24392C15.7842 2.22477 16.561 1.43554 17.5429 0.876251C18.5247 0.304535 19.6184 0.0186768 20.824 0.0186768C22.0421 0.0186768 23.142 0.304535 24.1239 0.876251C25.1057 1.43554 25.8763 2.22477 26.4356 3.24392C26.9949 4.25064 27.2745 5.39408 27.2745 6.67422C27.2745 7.95438 26.9949 9.10403 26.4356 10.1232C25.8763 11.1299 25.1057 11.9191 24.1239 12.4908C23.142 13.0501 22.0421 13.3298 20.824 13.3298ZM20.824 12.1553C21.7935 12.1553 22.6635 11.9316 23.4341 11.4841C24.2047 11.0367 24.8137 10.3966 25.2611 9.56388C25.7085 8.73115 25.9323 7.76793 25.9323 6.67422C25.9323 5.5805 25.7085 4.62349 25.2611 3.80319C24.8137 2.97046 24.2047 2.33038 23.4341 1.88295C22.6635 1.43552 21.7935 1.2118 20.824 1.2118C19.8546 1.2118 18.9846 1.43552 18.214 1.88295C17.4434 2.33038 16.8344 2.97046 16.387 3.80319C15.9396 4.62349 15.7158 5.5805 15.7158 6.67422C15.7158 7.76793 15.9396 8.73115 16.387 9.56388C16.8344 10.3966 17.4434 11.0367 18.214 11.4841C18.9846 11.9316 19.8546 12.1553 20.824 12.1553Z" fill="#E31B23"/>
<path d="M36.5963 13.1989L33.3711 7.75511H30.9661V13.1989H29.6611V0.167358H33.5763C35.0305 0.167358 36.1304 0.515365 36.8761 1.21136C37.6343 1.90736 38.0133 2.82086 38.0133 3.95187C38.0133 4.89645 37.7399 5.70432 37.193 6.37547C36.6586 7.03419 35.8632 7.46299 34.8067 7.66183L38.1625 13.1986L36.5963 13.1989ZM30.9661 6.71126H33.5948C34.6139 6.71126 35.3783 6.46268 35.8879 5.96553C36.4099 5.46838 36.6709 4.79722 36.6709 3.95207C36.6709 3.08208 36.4161 2.41093 35.9065 1.93862C35.4094 1.45389 34.6326 1.21154 33.5762 1.21154H30.9661V6.71126Z" fill="#E31B23"/>
<path d="M44.4639 0.168425C45.9057 0.168425 47.1423 0.429422 48.174 0.951421C49.2056 1.47342 49.9948 2.22536 50.5417 3.20724C51.0885 4.18909 51.362 5.35739 51.362 6.71211C51.362 8.05441 51.0885 9.21648 50.5417 10.1983C49.9948 11.1678 49.2056 11.9135 48.174 12.4355C47.1424 12.9451 45.9057 13.1999 44.4639 13.1999H40.605V0.168274L44.4639 0.168425ZM44.4639 12.1745C46.2785 12.1745 47.6581 11.696 48.6026 10.739C49.5596 9.76958 50.0381 8.42728 50.0381 6.71211C50.0381 4.99696 49.5596 3.65466 48.6026 2.68521C47.658 1.71577 46.2784 1.23106 44.4639 1.23106H41.9098V12.1746L44.4639 12.1745Z" fill="#E31B23"/>
<path d="M58.0546 13.3298C57.1473 13.3298 56.327 13.1744 55.5937 12.8637C54.8729 12.553 54.3012 12.1056 53.8786 11.5214C53.456 10.9373 53.2385 10.2475 53.2261 9.45204H56.0225C56.0598 9.99891 56.2462 10.4339 56.5818 10.757C56.9298 11.0802 57.4021 11.2418 57.9987 11.2418C58.6077 11.2418 59.0862 11.0926 59.4342 10.7943C59.7822 10.4961 59.9562 10.0983 59.9562 9.60119C59.9562 9.2159 59.8381 8.89897 59.602 8.6504C59.3659 8.40184 59.0676 8.20919 58.7071 8.07247C58.3591 7.92332 57.8744 7.76175 57.253 7.58774C56.4078 7.33918 55.718 7.09681 55.1836 6.86064C54.6616 6.61208 54.208 6.24544 53.8227 5.76071C53.4498 5.26356 53.2634 4.60484 53.2634 3.78456C53.2634 3.01398 53.456 2.34282 53.8413 1.77111C54.2266 1.19939 54.7673 0.764397 55.4633 0.466116C56.1593 0.155411 56.9547 6.10352e-05 57.8496 6.10352e-05C59.1919 6.10352e-05 60.2794 0.329418 61.1121 0.988145C61.9572 1.63445 62.4233 2.54175 62.5103 3.71003H59.6393C59.6145 3.2253 59.4218 2.84001 59.0614 2.55415C58.7134 2.25587 58.2473 2.10672 57.6631 2.10672C57.1536 2.10672 56.7434 2.24344 56.4327 2.51687C56.1344 2.77789 55.9853 3.16939 55.9853 3.69139C55.9853 4.03939 56.0971 4.33146 56.3208 4.5676C56.557 4.79131 56.8428 4.97775 57.1784 5.1269C57.5264 5.26362 58.0111 5.42519 58.6326 5.61163C59.4777 5.86019 60.1675 6.10877 60.7019 6.35736C61.2363 6.60595 61.6962 6.97881 62.0815 7.47593C62.4668 7.97306 62.6594 8.62556 62.6594 9.43344C62.6594 10.1294 62.4792 10.7757 62.1188 11.3723C61.7584 11.9689 61.2301 12.4474 60.5341 12.8078C59.8381 13.1558 59.0116 13.3298 58.0546 13.3298V13.3298Z" fill="#E31B23"/>
<path d="M64.2812 6.67483C64.2812 5.39467 64.5671 4.25123 65.1388 3.24453C65.723 2.22538 66.5122 1.43615 67.5065 0.876862C68.5132 0.305146 69.638 0.0192871 70.8809 0.0192871C72.335 0.0192871 73.609 0.392145 74.7027 1.13786C75.7964 1.88358 76.5608 2.91515 76.9958 4.23258H73.9943C73.6836 3.63599 73.261 3.18856 72.7265 2.89028C72.1921 2.57958 71.5707 2.42423 70.8622 2.42423C70.1041 2.42423 69.4267 2.59823 68.8302 2.94622C68.246 3.29422 67.7862 3.79138 67.4506 4.43768C67.1274 5.08398 66.9659 5.8297 66.9659 6.67483C66.9659 7.51998 67.1274 8.26569 67.4506 8.91197C67.7862 9.54583 68.246 10.043 68.8302 10.4034C69.4267 10.7514 70.1041 10.9254 70.8622 10.9254C71.5707 10.9254 72.1921 10.7701 72.7265 10.4594C73.2734 10.1487 73.696 9.69501 73.9943 9.09842H76.9958C76.5608 10.4283 75.7964 11.4661 74.7027 12.2118C73.6214 12.9451 72.3475 13.3118 70.8809 13.3118C69.638 13.3118 68.5132 13.0321 67.5065 12.4728C66.5122 11.9011 65.723 11.1119 65.1388 10.1052C64.5671 9.09843 64.2812 7.955 64.2812 6.67486V6.67483Z" fill="#E31B23"/>
<path d="M85.9444 13.1989L83.0734 8.12816H81.8429V13.1989H79.2329V0.186096H84.1173C85.124 0.186096 85.9816 0.366307 86.69 0.72673C87.3985 1.07473 87.9267 1.55323 88.2747 2.16224C88.6351 2.75881 88.8153 3.42996 88.8153 4.1757C88.8153 5.03327 88.5668 5.81006 88.0696 6.50606C87.5725 7.18963 86.833 7.66192 85.8511 7.92293L88.9645 13.1988L85.9444 13.1989ZM81.8429 6.18932H84.0241C84.7326 6.18932 85.2608 6.01532 85.6088 5.66732C85.9568 5.31933 86.1308 4.84082 86.1308 4.23181C86.1308 3.6228 85.9568 3.15051 85.6088 2.81493C85.2608 2.46694 84.7326 2.29294 84.0241 2.29294H81.8429V6.18932Z" fill="#E31B23"/>
<path d="M97.2245 13.3297C96.0065 13.3297 94.8879 13.0439 93.8687 12.4722C92.8496 11.9005 92.0417 11.1112 91.4451 10.1045C90.8486 9.08535 90.5503 7.9357 90.5503 6.65554C90.5503 5.38782 90.8486 4.2506 91.4451 3.24388C92.0417 2.22473 92.8496 1.42929 93.8687 0.857574C94.8879 0.285858 96.0065 0 97.2245 0C98.4549 0 99.5735 0.285858 100.58 0.857574C101.599 1.42929 102.401 2.22473 102.985 3.24388C103.582 4.2506 103.88 5.38782 103.88 6.65554C103.88 7.9357 103.582 9.08535 102.985 10.1045C102.401 11.1112 101.599 11.9005 100.58 12.4722C99.5611 13.0439 98.4425 13.3297 97.2245 13.3297ZM97.2245 10.9248C98.0075 10.9248 98.6973 10.7508 99.2939 10.4028C99.8905 10.0424 100.357 9.54523 100.692 8.91135C101.028 8.26507 101.195 7.51314 101.195 6.65554C101.195 5.79794 101.028 5.05223 100.692 4.41839C100.357 3.77211 99.8905 3.27496 99.2939 2.92694C98.6973 2.57894 98.0075 2.40494 97.2245 2.40494C96.4415 2.40494 95.7455 2.57894 95.1365 2.92694C94.5399 3.27494 94.0738 3.77209 93.7382 4.41839C93.4027 5.05225 93.2349 5.79796 93.2349 6.65554C93.2349 7.51311 93.4027 8.26505 93.7382 8.91135C94.0738 9.54521 94.5399 10.0424 95.1365 10.4028C95.7455 10.7508 96.4415 10.9248 97.2245 10.9248Z" fill="#E31B23"/>
<path d="M113.201 6.52635C113.934 6.66306 114.537 7.02971 115.009 7.62628C115.482 8.22287 115.718 8.90645 115.718 9.67701C115.718 10.373 115.544 10.9882 115.196 11.5227C114.86 12.0447 114.369 12.4548 113.723 12.7531C113.077 13.0514 112.312 13.2005 111.43 13.2005H105.818V0.187683H111.188C112.07 0.187683 112.828 0.330618 113.462 0.616476C114.108 0.902334 114.593 1.30004 114.916 1.80962C115.252 2.31919 115.42 2.89713 115.42 3.54343C115.42 4.30157 115.214 4.93544 114.804 5.44501C114.407 5.95459 113.872 6.31502 113.201 6.52631L113.201 6.52635ZM108.428 5.5942H110.815C111.436 5.5942 111.914 5.45127 112.25 5.16541C112.586 4.87955 112.753 4.46942 112.753 3.935C112.753 3.40058 112.579 2.98421 112.231 2.6859C111.896 2.38762 111.424 2.23847 110.815 2.23847H108.428V5.5942ZM111.057 11.131C111.691 11.131 112.182 10.9819 112.53 10.6836C112.89 10.3729 113.07 9.93167 113.07 9.35993C113.07 8.80064 112.884 8.35942 112.511 8.03627C112.138 7.71311 111.635 7.55153 111.001 7.55153H108.428V11.1311L111.057 11.131Z" fill="#E31B23"/>
<path d="M125.189 6.52635C125.922 6.66306 126.525 7.02971 126.997 7.62628C127.469 8.22287 127.705 8.90645 127.705 9.67701C127.705 10.373 127.531 10.9882 127.183 11.5227C126.848 12.0447 126.357 12.4548 125.711 12.7531C125.064 13.0514 124.3 13.2005 123.418 13.2005H117.806V0.187683H123.175C124.058 0.187683 124.816 0.330618 125.45 0.616476C126.096 0.902334 126.581 1.30004 126.904 1.80962C127.24 2.31919 127.407 2.89713 127.407 3.54343C127.407 4.30157 127.202 4.93544 126.792 5.44501C126.394 5.95459 125.86 6.31502 125.189 6.52631L125.189 6.52635ZM120.416 5.5942H122.802C123.424 5.5942 123.902 5.45127 124.238 5.16541C124.573 4.87955 124.741 4.46942 124.741 3.935C124.741 3.40058 124.567 2.98421 124.219 2.6859C123.884 2.38762 123.411 2.23847 122.802 2.23847H120.416V5.5942ZM123.045 11.131C123.679 11.131 124.169 10.9819 124.517 10.6836C124.878 10.3729 125.058 9.93167 125.058 9.35993C125.058 8.80064 124.872 8.35942 124.499 8.03627C124.126 7.71311 123.623 7.55153 122.989 7.55153H120.416V11.1311L123.045 11.131Z" fill="#E31B23"/>
<path d="M132.402 11.2046H136.69V13.1994H129.792V0.186523H132.402L132.402 11.2046Z" fill="#E31B23"/>
<path d="M140.959 2.21935V5.59374H145.34V7.60719H140.959V11.1307H145.899V13.2001H138.349V0.168518H145.899V2.21924L140.959 2.21935Z" fill="#E31B23"/>
<path d="M154.98 13.1989L152.109 8.12816H150.879V13.1989H148.269V0.186096H153.153C154.16 0.186096 155.017 0.366307 155.726 0.72673C156.434 1.07473 156.962 1.55323 157.31 2.16224C157.671 2.75881 157.851 3.42996 157.851 4.1757C157.851 5.03327 157.602 5.81006 157.105 6.50606C156.608 7.18963 155.869 7.66192 154.887 7.92293L158 13.1988L154.98 13.1989ZM150.879 6.18932H153.06C153.768 6.18932 154.296 6.01532 154.644 5.66732C154.992 5.31933 155.166 4.84082 155.166 4.23181C155.166 3.6228 154.992 3.15051 154.644 2.81493C154.296 2.46694 153.768 2.29294 153.06 2.29294H150.879V6.18932Z" fill="#E31B23"/>
</svg>
