<svg width="512" height="512" viewBox="0 0 512 512" fill="none" xmlns="http://www.w3.org/2000/svg">
<mask id="mask0" mask-type="alpha" maskUnits="userSpaceOnUse" x="0" y="0" width="512" height="512">
<circle cx="256" cy="256" r="256" fill="#B23030"/>
</mask>
<g mask="url(#mask0)">
<path d="M512 0H0V512H512V0Z" fill="url(#paint0_linear)"/>
</g>
<path d="M242.655 157.907C206.422 157.907 177.047 187.281 177.047 223.516C177.047 226.198 177.211 242.647 177.54 245.309C179.947 264.847 195.089 262.293 210.438 268.644C210.438 268.644 220.077 280.219 230.574 285.965L215.868 340.848C213.402 350.047 218.824 359.439 228.024 361.904C237.224 364.369 246.616 358.947 249.081 349.747L268.42 289.8L269.286 289.597L273.412 343.421C274.14 352.917 280.446 360.612 289.184 360.612H292.023C300.761 360.612 307.796 352.945 307.796 343.421V249.305V249.067C308.401 240.1 308.267 230.99 308.267 223.514C327.673 219.468 356.827 216.034 353.887 191.649C352.349 181.482 342.926 174.536 332.76 176.075C320.561 179.475 311.005 185.26 294.262 182.996C282.25 167.719 263.6 157.906 242.658 157.906L242.655 157.907Z" fill="url(#paint1_linear)"/>
<path d="M242.655 157.907C206.422 157.907 177.047 187.281 177.047 223.516C177.047 226.198 177.211 242.647 177.54 245.309C179.947 264.847 195.089 262.293 210.438 268.644C210.438 268.644 220.076 280.219 230.573 285.965L215.867 340.848C213.402 350.047 218.824 359.438 228.024 361.904C237.224 364.369 246.616 358.947 249.081 349.747L268.42 289.8L269.286 289.597L273.412 343.421C274.14 352.917 280.446 360.612 289.184 360.612H292.023C300.761 360.612 307.796 352.945 307.796 343.421V249.305V249.067C308.401 240.1 308.267 230.99 308.267 223.514C308.267 187.281 278.893 157.906 242.659 157.906L242.655 157.907Z" fill="url(#paint2_linear)"/>
<defs>
<linearGradient id="paint0_linear" x1="464.421" y1="47.5876" x2="47.5839" y2="464.344" gradientUnits="userSpaceOnUse">
<stop stop-color="#A35AD7"/>
<stop offset="1" stop-color="#9A45D7"/>
</linearGradient>
<linearGradient id="paint1_linear" x1="338.47" y1="187.391" x2="192.659" y2="333.068" gradientUnits="userSpaceOnUse">
<stop stop-color="white"/>
<stop offset="1" stop-color="#103388"/>
</linearGradient>
<linearGradient id="paint2_linear" x1="257.892" y1="185.967" x2="236.13" y2="331.814" gradientUnits="userSpaceOnUse">
<stop stop-color="white"/>
<stop offset="1" stop-color="white" stop-opacity="0.8797"/>
</linearGradient>
</defs>
</svg>
