<svg width="74" height="26" viewBox="0 0 74 26" fill="none" xmlns="http://www.w3.org/2000/svg">
<path d="M9.42324 25.7573L5.58024 18.7638H4.50104V25.7573H0V7.23108H7.55438C9.01086 7.23108 10.248 7.48619 11.2658 7.99641C12.3011 8.50663 13.0732 9.21038 13.5821 10.1077C14.091 10.9873 14.3454 11.9726 14.3454 13.0634C14.3454 14.295 13.9945 15.3946 13.2926 16.3622C12.6082 17.3299 11.5904 18.0161 10.2392 18.4207L14.5034 25.7573H9.42324ZM4.50104 15.5705H7.29116C8.11592 15.5705 8.73009 15.3682 9.1337 14.9635C9.55484 14.5589 9.76542 13.9871 9.76542 13.2481C9.76542 12.5268 9.55484 11.9638 9.1337 11.5591C8.73009 11.1369 8.11592 10.9258 7.29116 10.9258H4.50104V15.5705Z" fill="#C62828"/>
<path d="M19.9507 7.23108V18.2888C19.9507 19.3972 20.2227 20.2505 20.7667 20.8487C21.3107 21.4469 22.1091 21.7459 23.162 21.7459C24.2149 21.7459 25.0221 21.4469 25.5836 20.8487C26.1452 20.2505 26.4259 19.3972 26.4259 18.2888V7.23108H30.927V18.2888C30.927 19.9426 30.576 21.3413 29.8741 22.4849C29.1722 23.6285 28.2246 24.4906 27.0313 25.0712C25.8556 25.6518 24.5395 25.9421 23.083 25.9421C21.6266 25.9421 20.3193 25.6606 19.1611 25.0976C18.0205 24.517 17.1168 23.6549 16.4499 22.5113C15.7831 21.3501 15.4497 19.9426 15.4497 18.2888V7.23108H19.9507Z" fill="#C62828"/>
<path d="M39.1316 25.9421C37.7804 25.9421 36.5696 25.7221 35.4992 25.2823C34.4288 24.8424 33.5689 24.1915 32.9197 23.3294C32.2879 22.4673 31.9545 21.4292 31.9194 20.2153H36.71C36.7802 20.919 37.0171 21.4556 37.4207 21.8251C37.8243 22.1946 38.3507 22.3793 39 22.3793C39.6668 22.3793 40.1933 22.221 40.5793 21.9043C40.9654 21.57 41.1584 21.1302 41.1584 20.5847C41.1584 20.1273 41.0005 19.749 40.6846 19.4499C40.3863 19.1509 40.009 18.9045 39.5528 18.711C39.1141 18.5175 38.4824 18.2976 37.6576 18.0512C36.4643 17.6818 35.4904 17.3123 34.7359 16.9428C33.9813 16.5734 33.332 16.028 32.7881 15.3066C32.2441 14.5853 31.9721 13.644 31.9721 12.4828C31.9721 10.7586 32.595 9.4127 33.8409 8.44504C35.0868 7.45979 36.71 6.96716 38.7105 6.96716C40.746 6.96716 42.3868 7.45979 43.6327 8.44504C44.8786 9.4127 45.5454 10.7674 45.6331 12.5092H40.7636C40.7285 11.8758 40.5091 11.392 40.1055 11.0577C39.7195 10.7058 39.2018 10.5299 38.5525 10.5299C38.0086 10.5299 37.5699 10.6795 37.2365 10.9785C36.903 11.2776 36.7363 11.7087 36.7363 12.2717C36.7363 12.8699 37.0171 13.3361 37.5786 13.6704C38.1402 14.0047 39.0176 14.3653 40.2108 14.7524C41.4041 15.1571 42.3692 15.5441 43.1062 15.9136C43.8608 16.2831 44.5101 16.8197 45.0541 17.5234C45.598 18.2272 45.87 19.1333 45.87 20.2417C45.87 21.2973 45.598 22.2562 45.0541 23.1183C44.5276 23.9803 43.7555 24.6665 42.7377 25.1767C41.7199 25.6869 40.5179 25.9421 39.1316 25.9421Z" fill="#C62828"/>
<path d="M58.1853 16.2567C59.2557 16.4854 60.1156 17.022 60.7649 17.8665C61.4141 18.6934 61.7388 19.6435 61.7388 20.7167C61.7388 22.265 61.1948 23.4965 60.1068 24.4114C59.0364 25.3087 57.536 25.7573 55.6058 25.7573H46.9985V7.23108H55.3162C57.1939 7.23108 58.6591 7.66213 59.712 8.52422C60.7824 9.38632 61.3176 10.5563 61.3176 12.0342C61.3176 13.125 61.0281 14.0311 60.449 14.7524C59.8875 15.4738 59.1329 15.9752 58.1853 16.2567ZM51.4996 14.7524H54.4476C55.1846 14.7524 55.7462 14.5853 56.1322 14.251C56.5358 13.9167 56.7376 13.4329 56.7376 12.7995C56.7376 12.1485 56.5358 11.6559 56.1322 11.3216C55.7462 10.9698 55.1846 10.7938 54.4476 10.7938H51.4996V14.7524ZM54.8161 22.1682C55.5707 22.1682 56.1498 21.9922 56.5534 21.6404C56.9745 21.2885 57.1851 20.7783 57.1851 20.1097C57.1851 19.4587 56.9657 18.9485 56.527 18.5791C56.1059 18.192 55.518 17.9985 54.7635 17.9985H51.4996V22.1682H54.8161Z" fill="#C62828"/>
<path d="M67.1827 10.7938V14.6468H73.2104V18.0512H67.1827V22.1945H74.0001V25.7573H62.6816V7.23104H74.0001V10.7938H67.1827ZM71.2889 3.50996L64.9453 6.17542V3.06132L71.2889 0V3.50996Z" fill="#C62828"/>
</svg>
