<svg width="512" height="512" viewBox="0 0 512 512" fill="none" xmlns="http://www.w3.org/2000/svg">
<path fill-rule="evenodd" clip-rule="evenodd" d="M494.463 162.881H465.7V284.43C465.7 296.614 462.605 305.994 456.417 312.569C450.228 319.145 441.332 322.433 429.728 322.433C418.124 322.433 409.325 319.145 403.329 312.569C397.334 305.994 394.337 296.614 394.337 284.43V162.881H344.73V284.43C344.73 302.61 348.405 318.081 355.754 330.845C363.103 343.416 373.063 352.893 385.634 359.275C398.398 365.463 412.806 368.558 428.858 368.558C444.91 368.558 459.414 365.367 472.372 358.984C482.778 353.934 491.489 346.947 498.505 338.022C486.008 374.965 465.117 408.922 437.019 437.019C389.01 485.029 323.895 512 256 512C188.105 512 122.99 485.029 74.9806 437.019C26.9713 389.01 0 323.895 0 256C0 188.105 26.9713 122.99 74.9806 74.9807C122.99 26.9713 188.105 0 256 0C323.895 0 389.01 26.9713 437.019 74.9807C462.28 100.241 481.716 130.236 494.463 162.881Z" fill="#C62828"/>
<path d="M474.354 255.999C474.354 313.91 451.349 369.449 410.4 410.398C369.451 451.347 313.912 474.352 256.001 474.352C198.091 474.352 142.552 451.347 101.603 410.398C60.6534 369.449 37.6484 313.91 37.6484 255.999C37.6484 198.089 60.6534 142.55 101.603 101.601C142.552 60.6515 198.091 37.6465 256.001 37.6465C284.676 37.6465 313.07 43.2943 339.561 54.2676C366.053 65.2409 390.124 81.3246 410.4 101.601C430.676 121.877 446.76 145.948 457.733 172.439C468.707 198.931 474.354 227.325 474.354 255.999V255.999Z" fill="#8E0000"/>
<path d="M214.885 83.4669C213.94 83.4619 212.999 83.5846 212.087 83.8316C137.461 102.867 83.539 167.922 78.6766 244.783C78.5612 246.173 78.7242 247.573 79.1561 248.899C79.588 250.225 80.2801 251.452 81.1919 252.508C82.1037 253.563 83.217 254.426 84.4664 255.047C85.7159 255.667 87.0766 256.032 88.4687 256.119C89.8608 256.207 91.2565 256.017 92.574 255.559C93.8916 255.101 95.1046 254.384 96.142 253.452C97.1793 252.519 98.0202 251.389 98.6155 250.128C99.2108 248.866 99.5486 247.499 99.609 246.105C103.902 178.239 151.377 120.965 217.269 104.157C219.763 103.561 221.952 102.072 223.423 99.9706C224.893 97.8696 225.543 95.3028 225.25 92.7551C224.956 90.2075 223.739 87.8557 221.829 86.1443C219.92 84.4329 217.449 83.4804 214.885 83.4669V83.4669Z" fill="white" fill-opacity="0.933333"/>
<path d="M253.239 78.3411C251.843 78.3332 250.46 78.6042 249.17 79.138C247.88 79.6719 246.709 80.4579 245.727 81.45C244.745 82.4421 243.97 83.6203 243.449 84.9156C242.928 86.2109 242.671 87.5971 242.693 88.9931C242.714 90.389 243.015 91.7666 243.576 93.0451C244.137 94.3235 244.947 95.4771 245.96 96.4382C246.973 97.3992 248.167 98.1485 249.473 98.642C250.779 99.1355 252.17 99.3633 253.565 99.312C254.962 99.3199 256.345 99.0489 257.635 98.5151C258.925 97.9812 260.096 97.1952 261.078 96.2031C262.06 95.211 262.835 94.0328 263.356 92.7375C263.877 91.4422 264.134 90.056 264.112 88.66C264.091 87.2641 263.79 85.8865 263.229 84.608C262.668 83.3296 261.858 82.176 260.845 81.2149C259.832 80.2538 258.638 79.5046 257.332 79.0111C256.026 78.5176 254.635 78.2898 253.239 78.3411V78.3411Z" fill="white" fill-opacity="0.933333"/>
<mask id="mask0" mask-type="alpha" maskUnits="userSpaceOnUse" x="0" y="0" width="512" height="512">
<path d="M512 256C512 323.895 485.029 389.01 437.019 437.019C389.01 485.029 323.895 512 256 512C188.105 512 122.99 485.029 74.9806 437.019C26.9713 389.01 0 323.895 0 256C0 188.105 26.9713 122.99 74.9806 74.9807C122.99 26.9713 188.105 0 256 0C323.895 0 389.01 26.9713 437.019 74.9807C485.029 122.99 512 188.105 512 256Z" fill="#C62828"/>
</mask>
<g mask="url(#mask0)">
<path d="M278.307 366.527L235.953 289.652H224.059V366.527H174.453V162.881H257.71C273.762 162.881 287.396 165.685 298.613 171.294C310.024 176.902 318.533 184.638 324.142 194.501C329.75 204.171 332.554 215.001 332.554 226.992C332.554 240.53 328.686 252.617 320.951 263.254C313.408 273.89 302.191 281.433 287.3 285.881L334.295 366.527H278.307ZM224.059 254.551H254.809C263.899 254.551 270.668 252.327 275.116 247.879C279.757 243.431 282.078 237.145 282.078 229.023C282.078 221.093 279.757 214.905 275.116 210.457C270.668 205.815 263.899 203.494 254.809 203.494H224.059V254.551Z" fill="white"/>
<path d="M394.337 162.881V284.43C394.337 296.614 397.334 305.994 403.329 312.569C409.325 319.145 418.124 322.433 429.728 322.433C441.332 322.433 450.228 319.145 456.417 312.569C462.605 305.994 465.7 296.614 465.7 284.43V162.881H515.306V284.43C515.306 302.61 511.438 317.985 503.702 330.555C495.966 343.126 485.523 352.602 472.372 358.985C459.414 365.367 444.91 368.558 428.858 368.558C412.806 368.558 398.398 365.463 385.634 359.275C373.063 352.893 363.103 343.416 355.754 330.845C348.405 318.081 344.73 302.61 344.73 284.43V162.881H394.337Z" fill="white"/>
</g>
</svg>
