<?xml version="1.0" encoding="UTF-8" standalone="no"?>
<!-- Created with Inkscape (http://www.inkscape.org/) -->

<svg
   xmlns:dc="http://purl.org/dc/elements/1.1/"
   xmlns:cc="http://creativecommons.org/ns#"
   xmlns:rdf="http://www.w3.org/1999/02/22-rdf-syntax-ns#"
   xmlns:svg="http://www.w3.org/2000/svg"
   xmlns="http://www.w3.org/2000/svg"
   xmlns:xlink="http://www.w3.org/1999/xlink"
   xmlns:sodipodi="http://sodipodi.sourceforge.net/DTD/sodipodi-0.dtd"
   xmlns:inkscape="http://www.inkscape.org/namespaces/inkscape"
   width="300"
   height="300"
   viewBox="0 0 79.374999 79.374999"
   version="1.1"
   id="svg5383"
   inkscape:version="0.92.3 (2405546, 2018-03-11)"
   sodipodi:docname="telegram.svg">
  <defs
     id="defs5377">
    <clipPath
       clipPathUnits="userSpaceOnUse"
       id="clipPath5209">
      <path
         style="fill:#36e05d;fill-opacity:1;stroke-width:27.41232109"
         inkscape:connector-curvature="0"
         d="m -2956.7404,-2967.7917 c 22.2044,0 41.1181,-8.2261 57.8387,-24.3966 16.1743,-16.7225 24.3984,-35.6372 24.3984,-57.8406 0,-22.2043 -8.2261,-41.119 -24.3984,-57.8396 -16.7206,-16.1733 -35.6343,-24.3975 -57.8387,-24.3975 -22.2044,0 -41.119,8.227 -57.8406,24.3975 -16.1733,16.7206 -24.3965,35.6353 -24.3965,57.8396 0,22.2034 8.2261,41.1181 24.3965,57.8406 16.7216,16.1724 35.6362,24.3966 57.8406,24.3966 m 0,-356.3607 c 75.3837,0 139.8027,27.413 193.2561,80.8655 53.4544,53.4554 80.8664,117.8734 80.8664,193.258 v 39.7474 c 0,27.413 -9.5939,50.713 -27.412,69.9018 -19.1889,18.3664 -41.1191,27.4121 -68.5302,27.4121 -32.8948,0 -60.0328,-13.706 -80.5932,-41.1181 -27.4121,27.4121 -59.7596,41.1181 -97.5871,41.1181 -37.5552,0 -69.9028,-13.706 -97.0407,-40.0225 -26.3155,-27.1379 -40.0206,-59.2104 -40.0206,-97.0388 0,-37.5543 13.7051,-69.9018 40.0206,-97.0397 27.1379,-26.3155 59.4855,-40.0215 97.0407,-40.0215 37.8275,0 69.9009,13.706 97.0388,40.0215 26.3164,27.1379 40.0215,59.4854 40.0215,97.0397 v 39.7474 c 0,11.2388 4.3834,21.1069 12.6104,29.6052 8.2262,8.4964 17.8182,12.8846 28.5096,12.8846 11.512,0 21.1069,-4.3824 29.3301,-12.8846 8.2271,-8.4955 11.788,-18.3664 11.788,-29.6052 v -39.7474 c 0,-60.0328 -21.1078,-111.5691 -64.42,-154.8803 -43.3102,-43.3103 -94.8466,-64.4181 -154.8784,-64.4181 -60.0328,0 -111.5691,21.1078 -154.8804,64.4181 -43.3112,43.3112 -64.419,94.8475 -64.419,154.8803 0,60.0328 21.1078,111.5682 64.419,154.8794 43.3113,43.3112 94.8476,64.4181 154.8804,64.4181 h 137.0603 v 54.8251 h -137.0603 c -75.3846,0 -139.8036,-27.4111 -193.258,-80.8655 -53.4534,-53.4554 -80.8665,-117.8734 -80.8665,-193.2571 0,-75.3846 27.4131,-139.8026 80.8665,-193.258 53.4544,-53.4525 117.8734,-80.8655 193.258,-80.8655 z"
         id="path5211" />
    </clipPath>
    <clipPath
       clipPathUnits="userSpaceOnUse"
       id="clipPath5221">
      <path
         id="path5223"
         d="m -3064.2752,-3353.5401 h 228.7659 c 87.1486,0 157.9582,70.8086 157.9582,157.9563 v 228.7668 a 157.95746,157.95746 0 0 1 -157.9582,157.9582 h -228.7659 c -87.1486,0 -157.9581,-70.8086 -157.9581,-157.9582 v -228.7668 a 157.95746,157.95746 0 0 1 157.9581,-157.9563 m -5.4454,54.4676 a 98.042559,98.042559 0 0 0 -98.0423,98.0424 v 239.6604 c 0,54.1954 43.846,98.0424 98.0423,98.0424 h 239.6596 a 98.042559,98.042559 0 0 0 98.0423,-98.0424 v -239.6604 c 0,-54.1954 -43.847,-98.0424 -98.0423,-98.0424 h -239.6596 m 262.8071,40.8516 a 34.042556,34.042556 0 0 1 34.0432,34.0422 34.042556,34.042556 0 0 1 -34.0432,34.0423 34.042556,34.042556 0 0 1 -34.0412,-34.0423 34.042556,34.042556 0 0 1 34.0412,-34.0422 m -142.9783,40.8507 a 136.17022,136.17022 0 0 1 136.1708,136.1698 136.17022,136.17022 0 0 1 -136.1708,136.1708 136.17022,136.17022 0 0 1 -136.1698,-136.1708 136.17022,136.17022 0 0 1 136.1698,-136.1698 m 0,54.4675 a 81.702133,81.702133 0 0 0 -81.7022,81.7023 81.702133,81.702133 0 0 0 81.7022,81.7023 81.702133,81.702133 0 0 0 81.7023,-81.7023 81.702133,81.702133 0 0 0 -81.7023,-81.7023 z"
         inkscape:connector-curvature="0"
         style="fill:#35d45a;fill-opacity:1;stroke-width:27.23404121" />
    </clipPath>
    <clipPath
       clipPathUnits="userSpaceOnUse"
       id="clipPath5078">
      <path
         style="fill:#37ea62;fill-opacity:1;stroke-width:27.60505104"
         d="m -3115.5283,-3333.3572 c -30.4916,7e-4 -55.208,24.7163 -55.2073,55.2079 v 441.6873 c -7e-4,30.4915 24.7157,55.2072 55.2073,55.2072 h 331.2584 c 30.4922,0 55.2216,-24.7157 55.2209,-55.2072 v -331.2722 l -165.6354,-165.623 z m 0,55.2079 h 193.2331 v 138.0252 h 138.0253 v 303.6621 h -331.2584 z m 85.0652,212.1881 a 35.975901,35.975901 0 0 0 -35.9708,35.9845 v 107.9275 a 35.975901,35.975901 0 0 0 35.9708,35.9709 h 35.9715 a 35.975901,35.975901 0 0 0 35.9845,-35.9709 v -17.9926 h -35.9845 v 17.9926 h -35.9715 v -107.9275 h 35.9715 v 17.9789 h 35.9845 v -17.9789 a 35.975901,35.975901 0 0 0 -35.9845,-35.9845 z m 89.1856,0 35.9715,179.8829 h 35.9709 l 35.9845,-179.8829 h -35.9845 l -17.9789,89.9486 -17.992,-89.9486 z"
         id="path5080"
         inkscape:connector-curvature="0" />
    </clipPath>
    <clipPath
       clipPathUnits="userSpaceOnUse"
       id="clipPath4520">
      <path
         id="path4522"
         d="m -2819.6797,-3324.1525 v 0 0 109.6494 h -54.8236 c -18.9159,0 -27.4136,22.2042 -27.4136,41.1187 v 68.5308 0 h 82.2372 v 109.6487 h -82.2372 v 219.2988 h -109.6487 v -219.2988 h -82.2372 v -109.6487 h 82.2372 v -109.6495 a 109.64927,109.64927 0 0 1 109.6487,-109.6494 z"
         inkscape:connector-curvature="0"
         style="fill:#36e05d;fill-opacity:1;stroke-width:27.41231918" />
    </clipPath>
    <clipPath
       clipPathUnits="userSpaceOnUse"
       id="clipPath4512">
      <path
         id="path4514"
         d="m -2956.7432,-3317.5116 a 274.12316,274.12316 0 0 0 -274.1239,274.1232 c 0,121.1621 78.6743,223.959 187.5005,260.4174 13.7057,2.1952 18.0926,-6.3094 18.0926,-13.7071 0,-6.2991 0,-23.5746 0,-46.326 -75.9326,16.4468 -92.1054,-36.7324 -92.1054,-36.7324 -12.6099,-31.799 -30.4279,-40.2967 -30.4279,-40.2967 -24.9451,-16.9947 1.9157,-16.4468 1.9157,-16.4468 27.4115,1.915 41.9405,28.2341 41.9405,28.2341 23.8486,41.6672 64.1453,29.3313 79.7702,22.752 2.4671,-17.8179 9.5935,-29.8785 17.27,-36.7324 -60.8563,-6.8484 -124.727,-30.4279 -124.727,-134.8685 0,-30.4279 10.4182,-54.8244 28.2354,-74.2875 -2.7444,-6.8484 -12.3359,-35.3612 2.7452,-72.369 0,0 23.0267,-7.3971 75.3847,27.9615 21.6555,-6.03 45.2301,-9.045 68.5308,-9.045 23.2999,0 46.8746,3.0136 68.5301,9.045 52.358,-35.3627 75.384,-27.9615 75.384,-27.9615 15.0769,37.0078 5.4806,65.5165 2.7458,72.369 17.8179,19.4631 28.2347,43.861 28.2347,74.2875 0,104.7153 -64.146,127.7413 -125.2749,134.5952 9.8736,8.4956 18.9138,25.2184 18.9138,50.7129 0,36.7317 0,66.3377 0,75.1086 0,7.3977 4.3827,16.1735 18.3672,13.7071 108.8269,-36.7338 187.2259,-139.2553 187.2259,-260.4174 a 274.12316,274.12316 0 0 0 -274.1232,-274.1232 z"
         inkscape:connector-curvature="0"
         style="fill:#36e05d;fill-opacity:1;stroke-width:27.41231918" />
    </clipPath>
    <clipPath
       clipPathUnits="userSpaceOnUse"
       id="clipPath4516">
      <path
         id="path4518"
         d="m -2670.0075,-3228.2095 c -21.1075,9.5936 -43.8603,15.8982 -67.4349,18.9138 24.1233,-14.5283 42.7631,-37.5543 51.5354,-65.2411 -22.7513,13.7057 -47.9711,23.3006 -74.5614,28.7826 -21.6555,-23.5746 -52.084,-37.2803 -86.6227,-37.2803 -64.4186,0 -117.0506,52.6312 -117.0506,117.5985 0,9.3243 1.0979,18.3658 3.0136,26.8635 -97.5867,-4.9313 -184.4841,-51.8087 -242.3241,-122.8065 -10.1428,17.27 -15.8995,37.555 -15.8995,58.9359 0,40.8446 20.5596,77.0284 52.3573,97.5881 -19.4624,0 -37.555,-5.4807 -53.4546,-13.7058 0,0 0,0 0,0.8288 0,57.0167 40.5707,104.7146 94.2992,115.4047 -9.8736,2.7451 -20.2856,4.1136 -30.9764,4.1136 -7.3971,0 -14.8016,-0.8288 -21.9295,-2.1979 14.803,46.3274 57.84,80.866 109.6494,81.6886 -40.0221,31.799 -90.7349,50.4389 -146.1079,50.4389 -9.3243,0 -18.6405,-0.5205 -27.9608,-1.6493 52.0834,33.4428 114.0356,52.9066 180.3733,52.9066 216.0092,0 334.7049,-179.2774 334.7049,-334.7056 0,-5.2108 0,-10.1428 -0.2945,-15.3502 23.0267,-16.4474 42.7631,-37.281 58.6612,-61.1289 z"
         inkscape:connector-curvature="0"
         style="fill:#36e05d;fill-opacity:1;stroke-width:27.41231918" />
    </clipPath>
    <clipPath
       clipPathUnits="userSpaceOnUse"
       id="clipPath5082">
      <path
         style="fill:#36e05d;fill-opacity:1;stroke-width:27.41231918"
         inkscape:connector-curvature="0"
         d="m -2792.2672,-2887.4742 c -57.0188,-0.2945 -87.4453,-28.2348 -108.5535,-77.8517 l -6.0293,-13.4325 -52.084,-119.7916 c -17.2694,-42.2144 -60.3064,-70.9978 -108.5522,-70.9978 -65.5151,0 -118.6964,53.4545 -118.6964,119.5183 0,66.063 53.1813,119.5176 118.6964,119.5176 45.5041,0 85.5262,-26.0417 105.2632,-64.6926 l 21.1076,49.6156 c -29.332,36.7325 -75.3847,60.0331 -126.3708,60.0331 -90.187,0 -163.3779,-73.4655 -163.3779,-164.4737 0,-90.7349 73.1909,-164.4738 163.3779,-164.4738 67.9822,0 123.0812,36.7324 151.0413,101.4257 1.9157,5.2108 29.3313,69.6273 53.4538,124.451 14.8037,34.54 27.4122,56.7435 68.2569,58.1147 40.296,1.3671 67.9828,-23.5747 67.9828,-54.5504 0,-30.4286 -21.1075,-37.5551 -56.7441,-49.617 -63.596,-21.1076 -96.7656,-42.7624 -96.7656,-93.4759 0,-49.8903 33.1696,-83.0592 87.9946,-83.0592 35.9092,0 61.4029,15.8996 79.2209,47.6979 l -34.8133,17.544 c -13.1579,-18.0926 -27.6869,-25.4938 -46.0527,-25.4938 -25.7684,0 -44.1343,18.092 -44.1343,41.9412 0,33.9915 30.1532,39.1995 72.369,52.9053 56.7435,18.6405 83.0591,40.296 83.0591,92.928 0,55.6469 -47.4232,96.2176 -109.6487,96.2176 z"
         id="path5084" />
    </clipPath>
    <clipPath
       clipPathUnits="userSpaceOnUse"
       id="clipPath4524">
      <path
         id="path4526"
         d="m -3200.0254,-2817.024 v -466.0098 c 0,-16.1735 9.3243,-30.4279 23.0267,-37.0065 l 270.0116,270.0117 -270.0116,270.0103 c -13.7065,-6.8484 -23.0267,-20.8329 -23.0267,-37.0057 m 378.5645,-147.4784 -294.9568,170.5051 232.7306,-232.7313 62.2262,62.2262 m 91.8308,-118.1478 c 9.3243,7.3977 16.1728,18.9159 16.1728,32.6216 0,13.7058 -6.03,24.6705 -15.6249,32.3463 l -62.7734,36.1845 -68.5308,-68.5308 68.5308,-68.5315 62.2255,35.9099 m -386.7876,-223.4097 294.9568,170.5044 -62.2262,62.2256 z"
         inkscape:connector-curvature="0"
         style="fill:#36e05d;fill-opacity:1;stroke-width:27.41231918" />
    </clipPath>
    <clipPath
       clipPathUnits="userSpaceOnUse"
       id="clipPath5209-1">
      <path
         style="fill:#36e05d;fill-opacity:1;stroke-width:27.41232109"
         inkscape:connector-curvature="0"
         d="m -2956.7404,-2967.7917 c 22.2044,0 41.1181,-8.2261 57.8387,-24.3966 16.1743,-16.7225 24.3984,-35.6372 24.3984,-57.8406 0,-22.2043 -8.2261,-41.119 -24.3984,-57.8396 -16.7206,-16.1733 -35.6343,-24.3975 -57.8387,-24.3975 -22.2044,0 -41.119,8.227 -57.8406,24.3975 -16.1733,16.7206 -24.3965,35.6353 -24.3965,57.8396 0,22.2034 8.2261,41.1181 24.3965,57.8406 16.7216,16.1724 35.6362,24.3966 57.8406,24.3966 m 0,-356.3607 c 75.3837,0 139.8027,27.413 193.2561,80.8655 53.4544,53.4554 80.8664,117.8734 80.8664,193.258 v 39.7474 c 0,27.413 -9.5939,50.713 -27.412,69.9018 -19.1889,18.3664 -41.1191,27.4121 -68.5302,27.4121 -32.8948,0 -60.0328,-13.706 -80.5932,-41.1181 -27.4121,27.4121 -59.7596,41.1181 -97.5871,41.1181 -37.5552,0 -69.9028,-13.706 -97.0407,-40.0225 -26.3155,-27.1379 -40.0206,-59.2104 -40.0206,-97.0388 0,-37.5543 13.7051,-69.9018 40.0206,-97.0397 27.1379,-26.3155 59.4855,-40.0215 97.0407,-40.0215 37.8275,0 69.9009,13.706 97.0388,40.0215 26.3164,27.1379 40.0215,59.4854 40.0215,97.0397 v 39.7474 c 0,11.2388 4.3834,21.1069 12.6104,29.6052 8.2262,8.4964 17.8182,12.8846 28.5096,12.8846 11.512,0 21.1069,-4.3824 29.3301,-12.8846 8.2271,-8.4955 11.788,-18.3664 11.788,-29.6052 v -39.7474 c 0,-60.0328 -21.1078,-111.5691 -64.42,-154.8803 -43.3102,-43.3103 -94.8466,-64.4181 -154.8784,-64.4181 -60.0328,0 -111.5691,21.1078 -154.8804,64.4181 -43.3112,43.3112 -64.419,94.8475 -64.419,154.8803 0,60.0328 21.1078,111.5682 64.419,154.8794 43.3113,43.3112 94.8476,64.4181 154.8804,64.4181 h 137.0603 v 54.8251 h -137.0603 c -75.3846,0 -139.8036,-27.4111 -193.258,-80.8655 -53.4534,-53.4554 -80.8665,-117.8734 -80.8665,-193.2571 0,-75.3846 27.4131,-139.8026 80.8665,-193.258 53.4544,-53.4525 117.8734,-80.8655 193.258,-80.8655 z"
         id="path5211-0" />
    </clipPath>
    <clipPath
       clipPathUnits="userSpaceOnUse"
       id="clipPath5231">
      <path
         id="path5233"
         d="m -2949.8947,-3336.3851 a 272.34043,272.34043 0 0 1 272.3397,272.3396 272.34043,272.34043 0 0 1 -272.3397,272.3416 c -125.277,0 -230.1288,-83.881 -262.5358,-197.9922 l 104.3054,43.0304 c 7.0817,35.1321 38.4007,61.8214 75.7105,61.8214 42.485,0 77.0736,-34.5876 77.0736,-77.0726 v -3.5398 l 92.595,-66.178 h 2.1816 c 56.6463,0 102.6721,-46.0257 102.6721,-102.672 0,-56.6482 -46.0258,-102.673 -102.6721,-102.673 -56.6482,0 -102.9462,46.0248 -102.9462,102.673 v 1.3582 l -64.5436,94.2303 -4.3546,-0.2876 c -16.0688,0 -31.0478,4.9 -43.3026,13.3447 l -146.5181,-60.1919 c 11.7103,-140.256 128.8169,-250.5523 272.3396,-250.5523 m -101.31,413.1392 c 21.7865,8.9872 46.8425,-1.0936 55.8297,-22.8762 8.9862,-21.7875 -1.3592,-46.5703 -22.6051,-55.5565 l -34.8588,-14.4345 c 13.3446,-4.9 28.3236,-5.178 42.4849,0.8243 14.4345,5.7225 25.6005,16.8846 31.32,31.3181 5.9899,14.1623 5.9899,29.9579 0,44.1202 -11.7113,29.4116 -46.298,43.5748 -75.7115,31.3181 -13.6178,-5.7224 -23.9661,-16.0669 -29.6847,-28.3227 l 33.2255,13.6169 m 259.2682,-211.0637 c 0,37.8553 -30.7746,68.6299 -68.6298,68.6299 -37.583,0 -68.3576,-30.7746 -68.3576,-68.6299 a 68.085111,68.085111 0 0 1 68.3576,-68.3576 c 37.8552,0 68.6298,30.7737 68.6298,68.3576 m -119.8307,0 c 0,28.3227 22.8773,51.4722 51.4731,51.4722 28.3236,0 51.1999,-23.1495 51.1999,-51.4722 0,-28.3236 -22.8763,-51.4721 -51.1999,-51.4721 -28.5958,0 -51.4731,23.1485 -51.4731,51.4721 z"
         inkscape:connector-curvature="0"
         style="fill:#35d45a;fill-opacity:1;stroke-width:27.23404121" />
    </clipPath>
    <clipPath
       clipPathUnits="userSpaceOnUse"
       id="clipPath5217">
      <path
         id="path5219"
         d="m -3022.0886,-2866.1262 9.062,-136.8648 248.4924,-223.9022 c 10.9943,-10.0282 -2.2602,-14.885 -16.8261,-6.1519 l -306.7327,193.8111 -132.6587,-42.0613 c -28.4722,-8.0833 -28.7962,-27.8261 6.4691,-42.0632 l 516.7209,-199.3111 c 23.6211,-10.6761 46.2692,5.8211 37.2092,42.0613 l -88.0065,414.4782 c -6.1519,29.4432 -23.9432,36.5622 -48.5352,22.9722 l -133.9518,-99.0076 -64.3874,62.4454 c -7.4478,7.4478 -13.5891,13.59 -26.8561,13.59 z"
         inkscape:connector-curvature="0"
         style="fill:#35d45a;fill-opacity:1;stroke-width:32.35575867" />
    </clipPath>
    <clipPath
       clipPathUnits="userSpaceOnUse"
       id="clipPath4512-2">
      <path
         id="path4514-1"
         d="m -2956.7432,-3317.5116 a 274.12316,274.12316 0 0 0 -274.1239,274.1232 c 0,121.1621 78.6743,223.959 187.5005,260.4174 13.7057,2.1952 18.0926,-6.3094 18.0926,-13.7071 0,-6.2991 0,-23.5746 0,-46.326 -75.9326,16.4468 -92.1054,-36.7324 -92.1054,-36.7324 -12.6099,-31.799 -30.4279,-40.2967 -30.4279,-40.2967 -24.9451,-16.9947 1.9157,-16.4468 1.9157,-16.4468 27.4115,1.915 41.9405,28.2341 41.9405,28.2341 23.8486,41.6672 64.1453,29.3313 79.7702,22.752 2.4671,-17.8179 9.5935,-29.8785 17.27,-36.7324 -60.8563,-6.8484 -124.727,-30.4279 -124.727,-134.8685 0,-30.4279 10.4182,-54.8244 28.2354,-74.2875 -2.7444,-6.8484 -12.3359,-35.3612 2.7452,-72.369 0,0 23.0267,-7.3971 75.3847,27.9615 21.6555,-6.03 45.2301,-9.045 68.5308,-9.045 23.2999,0 46.8746,3.0136 68.5301,9.045 52.358,-35.3627 75.384,-27.9615 75.384,-27.9615 15.0769,37.0078 5.4806,65.5165 2.7458,72.369 17.8179,19.4631 28.2347,43.861 28.2347,74.2875 0,104.7153 -64.146,127.7413 -125.2749,134.5952 9.8736,8.4956 18.9138,25.2184 18.9138,50.7129 0,36.7317 0,66.3377 0,75.1086 0,7.3977 4.3827,16.1735 18.3672,13.7071 108.8269,-36.7338 187.2259,-139.2553 187.2259,-260.4174 a 274.12316,274.12316 0 0 0 -274.1232,-274.1232 z"
         inkscape:connector-curvature="0"
         style="fill:#36e05d;fill-opacity:1;stroke-width:27.41231918" />
    </clipPath>
    <clipPath
       clipPathUnits="userSpaceOnUse"
       id="clipPath4516-3">
      <path
         id="path4518-8"
         d="m -2670.0075,-3228.2095 c -21.1075,9.5936 -43.8603,15.8982 -67.4349,18.9138 24.1233,-14.5283 42.7631,-37.5543 51.5354,-65.2411 -22.7513,13.7057 -47.9711,23.3006 -74.5614,28.7826 -21.6555,-23.5746 -52.084,-37.2803 -86.6227,-37.2803 -64.4186,0 -117.0506,52.6312 -117.0506,117.5985 0,9.3243 1.0979,18.3658 3.0136,26.8635 -97.5867,-4.9313 -184.4841,-51.8087 -242.3241,-122.8065 -10.1428,17.27 -15.8995,37.555 -15.8995,58.9359 0,40.8446 20.5596,77.0284 52.3573,97.5881 -19.4624,0 -37.555,-5.4807 -53.4546,-13.7058 0,0 0,0 0,0.8288 0,57.0167 40.5707,104.7146 94.2992,115.4047 -9.8736,2.7451 -20.2856,4.1136 -30.9764,4.1136 -7.3971,0 -14.8016,-0.8288 -21.9295,-2.1979 14.803,46.3274 57.84,80.866 109.6494,81.6886 -40.0221,31.799 -90.7349,50.4389 -146.1079,50.4389 -9.3243,0 -18.6405,-0.5205 -27.9608,-1.6493 52.0834,33.4428 114.0356,52.9066 180.3733,52.9066 216.0092,0 334.7049,-179.2774 334.7049,-334.7056 0,-5.2108 0,-10.1428 -0.2945,-15.3502 23.0267,-16.4474 42.7631,-37.281 58.6612,-61.1289 z"
         inkscape:connector-curvature="0"
         style="fill:#36e05d;fill-opacity:1;stroke-width:27.41231918" />
    </clipPath>
    <clipPath
       clipPathUnits="userSpaceOnUse"
       id="clipPath4520-0">
      <path
         id="path4522-3"
         d="m -2819.6797,-3324.1525 v 0 0 109.6494 h -54.8236 c -18.9159,0 -27.4136,22.2042 -27.4136,41.1187 v 68.5308 0 h 82.2372 v 109.6487 h -82.2372 v 219.2988 h -109.6487 v -219.2988 h -82.2372 v -109.6487 h 82.2372 v -109.6495 a 109.64927,109.64927 0 0 1 109.6487,-109.6494 z"
         inkscape:connector-curvature="0"
         style="fill:#36e05d;fill-opacity:1;stroke-width:27.41231918" />
    </clipPath>
    <clipPath
       clipPathUnits="userSpaceOnUse"
       id="clipPath4524-5">
      <path
         id="path4526-5"
         d="m -3200.0254,-2817.024 v -466.0098 c 0,-16.1735 9.3243,-30.4279 23.0267,-37.0065 l 270.0116,270.0117 -270.0116,270.0103 c -13.7065,-6.8484 -23.0267,-20.8329 -23.0267,-37.0057 m 378.5645,-147.4784 -294.9568,170.5051 232.7306,-232.7313 62.2262,62.2262 m 91.8308,-118.1478 c 9.3243,7.3977 16.1728,18.9159 16.1728,32.6216 0,13.7058 -6.03,24.6705 -15.6249,32.3463 l -62.7734,36.1845 -68.5308,-68.5308 68.5308,-68.5315 62.2255,35.9099 m -386.7876,-223.4097 294.9568,170.5044 -62.2262,62.2256 z"
         inkscape:connector-curvature="0"
         style="fill:#36e05d;fill-opacity:1;stroke-width:27.41231918" />
    </clipPath>
    <clipPath
       clipPathUnits="userSpaceOnUse"
       id="clipPath5082-2">
      <path
         style="fill:#36e05d;fill-opacity:1;stroke-width:27.41231918"
         inkscape:connector-curvature="0"
         d="m -2792.2672,-2887.4742 c -57.0188,-0.2945 -87.4453,-28.2348 -108.5535,-77.8517 l -6.0293,-13.4325 -52.084,-119.7916 c -17.2694,-42.2144 -60.3064,-70.9978 -108.5522,-70.9978 -65.5151,0 -118.6964,53.4545 -118.6964,119.5183 0,66.063 53.1813,119.5176 118.6964,119.5176 45.5041,0 85.5262,-26.0417 105.2632,-64.6926 l 21.1076,49.6156 c -29.332,36.7325 -75.3847,60.0331 -126.3708,60.0331 -90.187,0 -163.3779,-73.4655 -163.3779,-164.4737 0,-90.7349 73.1909,-164.4738 163.3779,-164.4738 67.9822,0 123.0812,36.7324 151.0413,101.4257 1.9157,5.2108 29.3313,69.6273 53.4538,124.451 14.8037,34.54 27.4122,56.7435 68.2569,58.1147 40.296,1.3671 67.9828,-23.5747 67.9828,-54.5504 0,-30.4286 -21.1075,-37.5551 -56.7441,-49.617 -63.596,-21.1076 -96.7656,-42.7624 -96.7656,-93.4759 0,-49.8903 33.1696,-83.0592 87.9946,-83.0592 35.9092,0 61.4029,15.8996 79.2209,47.6979 l -34.8133,17.544 c -13.1579,-18.0926 -27.6869,-25.4938 -46.0527,-25.4938 -25.7684,0 -44.1343,18.092 -44.1343,41.9412 0,33.9915 30.1532,39.1995 72.369,52.9053 56.7435,18.6405 83.0591,40.296 83.0591,92.928 0,55.6469 -47.4232,96.2176 -109.6487,96.2176 z"
         id="path5084-8" />
    </clipPath>
    <clipPath
       clipPathUnits="userSpaceOnUse"
       id="clipPath5078-4">
      <path
         style="fill:#37ea62;fill-opacity:1;stroke-width:27.60505104"
         d="m -3115.5283,-3333.3572 c -30.4916,7e-4 -55.208,24.7163 -55.2073,55.2079 v 441.6873 c -7e-4,30.4915 24.7157,55.2072 55.2073,55.2072 h 331.2584 c 30.4922,0 55.2216,-24.7157 55.2209,-55.2072 v -331.2722 l -165.6354,-165.623 z m 0,55.2079 h 193.2331 v 138.0252 h 138.0253 v 303.6621 h -331.2584 z m 85.0652,212.1881 a 35.975901,35.975901 0 0 0 -35.9708,35.9845 v 107.9275 a 35.975901,35.975901 0 0 0 35.9708,35.9709 h 35.9715 a 35.975901,35.975901 0 0 0 35.9845,-35.9709 v -17.9926 h -35.9845 v 17.9926 h -35.9715 v -107.9275 h 35.9715 v 17.9789 h 35.9845 v -17.9789 a 35.975901,35.975901 0 0 0 -35.9845,-35.9845 z m 89.1856,0 35.9715,179.8829 h 35.9709 l 35.9845,-179.8829 h -35.9845 l -17.9789,89.9486 -17.992,-89.9486 z"
         id="path5080-9"
         inkscape:connector-curvature="0" />
    </clipPath>
    <clipPath
       clipPathUnits="userSpaceOnUse"
       id="clipPath5231-3">
      <path
         id="path5233-9"
         d="m -2949.8947,-3336.3851 a 272.34043,272.34043 0 0 1 272.3397,272.3396 272.34043,272.34043 0 0 1 -272.3397,272.3416 c -125.277,0 -230.1288,-83.881 -262.5358,-197.9922 l 104.3054,43.0304 c 7.0817,35.1321 38.4007,61.8214 75.7105,61.8214 42.485,0 77.0736,-34.5876 77.0736,-77.0726 v -3.5398 l 92.595,-66.178 h 2.1816 c 56.6463,0 102.6721,-46.0257 102.6721,-102.672 0,-56.6482 -46.0258,-102.673 -102.6721,-102.673 -56.6482,0 -102.9462,46.0248 -102.9462,102.673 v 1.3582 l -64.5436,94.2303 -4.3546,-0.2876 c -16.0688,0 -31.0478,4.9 -43.3026,13.3447 l -146.5181,-60.1919 c 11.7103,-140.256 128.8169,-250.5523 272.3396,-250.5523 m -101.31,413.1392 c 21.7865,8.9872 46.8425,-1.0936 55.8297,-22.8762 8.9862,-21.7875 -1.3592,-46.5703 -22.6051,-55.5565 l -34.8588,-14.4345 c 13.3446,-4.9 28.3236,-5.178 42.4849,0.8243 14.4345,5.7225 25.6005,16.8846 31.32,31.3181 5.9899,14.1623 5.9899,29.9579 0,44.1202 -11.7113,29.4116 -46.298,43.5748 -75.7115,31.3181 -13.6178,-5.7224 -23.9661,-16.0669 -29.6847,-28.3227 l 33.2255,13.6169 m 259.2682,-211.0637 c 0,37.8553 -30.7746,68.6299 -68.6298,68.6299 -37.583,0 -68.3576,-30.7746 -68.3576,-68.6299 a 68.085111,68.085111 0 0 1 68.3576,-68.3576 c 37.8552,0 68.6298,30.7737 68.6298,68.3576 m -119.8307,0 c 0,28.3227 22.8773,51.4722 51.4731,51.4722 28.3236,0 51.1999,-23.1495 51.1999,-51.4722 0,-28.3236 -22.8763,-51.4721 -51.1999,-51.4721 -28.5958,0 -51.4731,23.1485 -51.4731,51.4721 z"
         inkscape:connector-curvature="0"
         style="fill:#35d45a;fill-opacity:1;stroke-width:27.23404121" />
    </clipPath>
    <clipPath
       clipPathUnits="userSpaceOnUse"
       id="clipPath5221-5">
      <path
         id="path5223-4"
         d="m -3064.2752,-3353.5401 h 228.7659 c 87.1486,0 157.9582,70.8086 157.9582,157.9563 v 228.7668 a 157.95746,157.95746 0 0 1 -157.9582,157.9582 h -228.7659 c -87.1486,0 -157.9581,-70.8086 -157.9581,-157.9582 v -228.7668 a 157.95746,157.95746 0 0 1 157.9581,-157.9563 m -5.4454,54.4676 a 98.042559,98.042559 0 0 0 -98.0423,98.0424 v 239.6604 c 0,54.1954 43.846,98.0424 98.0423,98.0424 h 239.6596 a 98.042559,98.042559 0 0 0 98.0423,-98.0424 v -239.6604 c 0,-54.1954 -43.847,-98.0424 -98.0423,-98.0424 h -239.6596 m 262.8071,40.8516 a 34.042556,34.042556 0 0 1 34.0432,34.0422 34.042556,34.042556 0 0 1 -34.0432,34.0423 34.042556,34.042556 0 0 1 -34.0412,-34.0423 34.042556,34.042556 0 0 1 34.0412,-34.0422 m -142.9783,40.8507 a 136.17022,136.17022 0 0 1 136.1708,136.1698 136.17022,136.17022 0 0 1 -136.1708,136.1708 136.17022,136.17022 0 0 1 -136.1698,-136.1708 136.17022,136.17022 0 0 1 136.1698,-136.1698 m 0,54.4675 a 81.702133,81.702133 0 0 0 -81.7022,81.7023 81.702133,81.702133 0 0 0 81.7022,81.7023 81.702133,81.702133 0 0 0 81.7023,-81.7023 81.702133,81.702133 0 0 0 -81.7023,-81.7023 z"
         inkscape:connector-curvature="0"
         style="fill:#35d45a;fill-opacity:1;stroke-width:27.23404121" />
    </clipPath>
    <clipPath
       clipPathUnits="userSpaceOnUse"
       id="clipPath5217-6">
      <path
         id="path5219-9"
         d="m -3022.0886,-2866.1262 9.062,-136.8648 248.4924,-223.9022 c 10.9943,-10.0282 -2.2602,-14.885 -16.8261,-6.1519 l -306.7327,193.8111 -132.6587,-42.0613 c -28.4722,-8.0833 -28.7962,-27.8261 6.4691,-42.0632 l 516.7209,-199.3111 c 23.6211,-10.6761 46.2692,5.8211 37.2092,42.0613 l -88.0065,414.4782 c -6.1519,29.4432 -23.9432,36.5622 -48.5352,22.9722 l -133.9518,-99.0076 -64.3874,62.4454 c -7.4478,7.4478 -13.5891,13.59 -26.8561,13.59 z"
         inkscape:connector-curvature="0"
         style="fill:#35d45a;fill-opacity:1;stroke-width:32.35575867" />
    </clipPath>
    <linearGradient
       inkscape:collect="always"
       xlink:href="#linearGradient5860"
       id="linearGradient8360"
       gradientUnits="userSpaceOnUse"
       x1="-6945.1206"
       y1="1072.0175"
       x2="-5945.521"
       y2="1072.0175" />
    <linearGradient
       inkscape:collect="always"
       id="linearGradient5860">
      <stop
         style="stop-color:#35e15d;stop-opacity:1;"
         offset="0"
         id="stop5856" />
      <stop
         style="stop-color:#3bfd68;stop-opacity:0.98039216"
         offset="1"
         id="stop5858" />
    </linearGradient>
    <linearGradient
       inkscape:collect="always"
       xlink:href="#linearGradient5860"
       id="linearGradient8362"
       gradientUnits="userSpaceOnUse"
       x1="-6085.8311"
       y1="858.55078"
       x2="-6812.6797"
       y2="1198.4746" />
    <linearGradient
       inkscape:collect="always"
       xlink:href="#linearGradient21021"
       id="linearGradient8364"
       gradientUnits="userSpaceOnUse"
       x1="-6049.9863"
       y1="848.8443"
       x2="-6799.769"
       y2="1199.4939" />
    <linearGradient
       inkscape:collect="always"
       id="linearGradient21021">
      <stop
         style="stop-color:#1a1a1a;stop-opacity:0.21301775"
         offset="0"
         id="stop21023" />
      <stop
         style="stop-color:#1a1a1a;stop-opacity:0;"
         offset="1"
         id="stop21025" />
    </linearGradient>
  </defs>
  <sodipodi:namedview
     id="base"
     pagecolor="#ffffff"
     bordercolor="#666666"
     borderopacity="1.0"
     inkscape:pageopacity="0.0"
     inkscape:pageshadow="2"
     inkscape:zoom="1.4"
     inkscape:cx="239.10054"
     inkscape:cy="157.04264"
     inkscape:document-units="mm"
     inkscape:current-layer="layer1"
     showgrid="false"
     units="px"
     inkscape:window-width="1920"
     inkscape:window-height="1017"
     inkscape:window-x="-8"
     inkscape:window-y="-8"
     inkscape:window-maximized="1" />
  <metadata
     id="metadata5380">
    <rdf:RDF>
      <cc:Work
         rdf:about="">
        <dc:format>image/svg+xml</dc:format>
        <dc:type
           rdf:resource="http://purl.org/dc/dcmitype/StillImage" />
        <dc:title></dc:title>
      </cc:Work>
    </rdf:RDF>
  </metadata>
  <g
     inkscape:label="Camada 1"
     inkscape:groupmode="layer"
     id="layer1"
     transform="translate(0,-217.625)">
    <g
       clip-path="url(#clipPath5217-6)"
       id="g5241"
       transform="matrix(0.11594423,0,0,0.11594423,381.71051,614.55983)">
      <path
         transform="matrix(0.81138799,-0.29429529,0.29429529,0.81138799,1647.411,-5761.4563)"
         inkscape:transform-center-y="-84.184641"
         inkscape:transform-center-x="-75.74115"
         d="m -5945.521,1571.8173 -499.7998,-133.9209 -499.7998,-133.921 365.8789,-365.87888 365.8788,-365.87883 133.921,499.79981 z"
         inkscape:randomized="0"
         inkscape:rounded="0"
         inkscape:flatsided="false"
         sodipodi:arg2="1.8325957"
         sodipodi:arg1="0.78539816"
         sodipodi:r2="298.73886"
         sodipodi:r1="597.47766"
         sodipodi:cy="1149.3368"
         sodipodi:cx="-6368.0015"
         sodipodi:sides="3"
         id="path5235"
         style="fill:url(#linearGradient8360);fill-opacity:1;stroke:none"
         sodipodi:type="star" />
      <path
         sodipodi:type="star"
         style="fill:url(#linearGradient8362);fill-opacity:1;stroke:none"
         id="path5237"
         sodipodi:sides="3"
         sodipodi:cx="-6368.0015"
         sodipodi:cy="1149.3368"
         sodipodi:r1="597.47766"
         sodipodi:r2="298.73886"
         sodipodi:arg1="0.78539816"
         sodipodi:arg2="1.8325957"
         inkscape:flatsided="false"
         inkscape:rounded="0"
         inkscape:randomized="0"
         d="m -5945.521,1571.8173 -499.7998,-133.9209 -499.7998,-133.921 365.8789,-365.87888 365.8788,-365.87883 133.921,499.79981 z"
         inkscape:transform-center-x="75.74155"
         inkscape:transform-center-y="84.184644"
         transform="matrix(-0.81138799,0.29429529,-0.29429529,-0.81138799,-7547.1953,-366.65602)" />
      <path
         sodipodi:type="star"
         style="fill:url(#linearGradient8364);fill-opacity:1;stroke:none"
         id="path5239"
         sodipodi:sides="3"
         sodipodi:cx="-6368.0015"
         sodipodi:cy="1149.3368"
         sodipodi:r1="597.47766"
         sodipodi:r2="298.73886"
         sodipodi:arg1="0.78539816"
         sodipodi:arg2="1.8325957"
         inkscape:flatsided="false"
         inkscape:rounded="0"
         inkscape:randomized="0"
         d="m -5945.521,1571.8173 -499.7998,-133.9209 -499.7998,-133.921 365.8789,-365.87888 365.8788,-365.87883 133.921,499.79981 z"
         inkscape:transform-center-x="-67.802193"
         inkscape:transform-center-y="-75.360601"
         transform="matrix(0.7263396,-0.26344772,0.26344772,0.7263396,1176.5447,-5444.4718)" />
    </g>
  </g>
</svg>
