<svg width="103" height="35" viewBox="0 0 103 35" fill="none" xmlns="http://www.w3.org/2000/svg">
<path d="M6.56399 14.9249C5.22254 14.9249 4.06342 14.6323 3.08665 14.0471C2.12288 13.4489 1.37402 12.6232 0.840067 11.5699C0.306083 10.5036 0.0390625 9.26825 0.0390625 7.86389C0.0390625 6.47252 0.306083 5.25014 0.840067 4.19677C1.37404 3.13043 2.1229 2.29818 3.08665 1.70001C4.06342 1.10183 5.22254 0.802734 6.56399 0.802734C8.12686 0.802734 9.39667 1.17985 10.3734 1.93407C11.3633 2.6753 11.9949 3.71561 12.2684 5.05501H10.4515C10.2432 4.20974 9.81337 3.53355 9.16219 3.02645C8.52401 2.5063 7.65792 2.24622 6.56388 2.24622C5.58711 2.24622 4.734 2.47378 4.00463 2.92892C3.27529 3.37105 2.70874 4.01476 2.30495 4.86004C1.91424 5.69229 1.7189 6.69358 1.7189 7.86394C1.7189 9.0343 1.91424 10.0421 2.30495 10.8873C2.7087 11.7196 3.27525 12.3633 4.00463 12.8184C4.73397 13.2606 5.58707 13.4816 6.56388 13.4816C7.65785 13.4816 8.52395 13.2346 9.16219 12.7404C9.81338 12.2333 10.2432 11.5636 10.4515 10.7313H12.2684C11.9949 12.0447 11.3633 13.072 10.3734 13.8132C9.39667 14.5544 8.12686 14.925 6.56399 14.925V14.9249Z" fill="#394364"/>
<path d="M20.8628 14.9248C19.5214 14.9248 18.3427 14.6322 17.3269 14.047C16.324 13.4488 15.5361 12.6166 14.9631 11.5502C14.403 10.4839 14.123 9.25503 14.123 7.86365C14.123 6.47227 14.403 5.2499 14.9631 4.19653C15.5361 3.13019 16.3241 2.29793 17.3269 1.69975C18.3427 1.10158 19.5214 0.80249 20.8628 0.80249C22.2173 0.80249 23.3959 1.10158 24.3987 1.69975C25.4146 2.29793 26.2025 3.13019 26.7625 4.19653C27.3226 5.24981 27.6026 6.47219 27.6026 7.86365C27.6026 9.25511 27.3226 10.484 26.7625 11.5502C26.2025 12.6166 25.4146 13.4488 24.3987 14.047C23.3959 14.6322 22.2173 14.9248 20.8628 14.9248ZM20.8628 13.4813C21.8657 13.4813 22.7448 13.2603 23.5001 12.8181C24.2685 12.363 24.8611 11.7193 25.2779 10.887C25.7077 10.0417 25.9226 9.03395 25.9226 7.86364C25.9226 6.69333 25.7077 5.69203 25.2779 4.85973C24.8611 4.02748 24.2685 3.3903 23.5001 2.94819C22.7447 2.49306 21.8656 2.2655 20.8628 2.2655C19.86 2.2655 18.9743 2.49306 18.2059 2.94819C17.4505 3.39033 16.8579 4.0275 16.4281 4.85973C16.0114 5.69198 15.803 6.69328 15.803 7.86364C15.803 9.034 16.0114 10.0418 16.4281 10.887C16.8579 11.7193 17.4505 12.363 18.2059 12.8181C18.9743 13.2603 19.8599 13.4813 20.8628 13.4813Z" fill="#394364"/>
<path d="M33.5383 14.6912L28.4004 1.03778H30.1782L34.4955 12.9559L38.852 1.03778H40.5907L35.4528 14.6912H33.5383Z" fill="#394364"/>
<path d="M42.4668 14.6912V1.03778H44.1078V14.6912H42.4668Z" fill="#394364"/>
<path d="M47.0068 14.6912V1.03778H51.207C53.6164 1.03778 55.3877 1.64896 56.5207 2.87134C57.6668 4.09371 58.2399 5.7712 58.2399 7.90381C58.2399 9.9974 57.6668 11.6554 56.5207 12.8778C55.3876 14.0872 53.6164 14.6919 51.207 14.6919L47.0068 14.6912ZM48.6478 13.3259H51.1679C52.4964 13.3259 53.5513 13.1113 54.3327 12.6822C55.1272 12.2401 55.6937 11.6159 56.0323 10.8096C56.3709 9.99034 56.5402 9.02155 56.5402 7.90322C56.5402 6.75886 56.3709 5.77707 56.0323 4.95783C55.6937 4.13859 55.1271 3.50789 54.3327 3.06575C53.5513 2.62362 52.4964 2.40255 51.1679 2.40255H48.6478V13.3259Z" fill="#394364"/>
<path d="M61.9337 14.6912V2.87073L59.7261 3.35837V2.22704L62.4806 1.03717H63.5941V14.6906L61.9337 14.6912Z" fill="#394364"/>
<path d="M71.0008 0.803004C71.9906 0.803004 72.8241 0.991566 73.5014 1.36868C74.1786 1.73279 74.7191 2.22695 75.1228 2.85117C75.5396 3.47536 75.8392 4.17758 76.0215 4.95783C76.2169 5.72505 76.3145 6.51177 76.3145 7.31799C76.3145 8.82647 76.1062 10.1528 75.6894 11.2971C75.2726 12.4284 74.667 13.3192 73.8725 13.9694C73.091 14.6066 72.1403 14.9252 71.0203 14.9252C70.1607 14.9252 69.4248 14.7562 68.8127 14.4181C68.2005 14.08 67.7122 13.6313 67.3475 13.0722C66.9959 12.5 66.7744 11.8693 66.6833 11.1801H68.207C68.3503 11.9213 68.6694 12.4935 69.1643 12.8967C69.6592 13.2998 70.2844 13.5013 71.0398 13.5013C72.0687 13.5013 72.9283 13.0202 73.6185 12.0579C74.3218 11.0826 74.6995 9.56764 74.7516 7.51297C74.439 8.12415 73.9376 8.65732 73.2473 9.11249C72.5701 9.55462 71.7496 9.77569 70.7858 9.77569C70.0044 9.77569 69.2685 9.59363 68.5782 9.22952C67.901 8.86541 67.3474 8.35827 66.9176 7.7081C66.4878 7.04491 66.2729 6.27116 66.2729 5.38687C66.2729 4.61964 66.4618 3.8849 66.8395 3.18265C67.2172 2.48044 67.7576 1.90827 68.4609 1.46612C69.1773 1.02398 70.0238 0.802917 71.0006 0.802917L71.0008 0.803004ZM71.118 2.24645C70.5058 2.24645 69.9589 2.37649 69.477 2.63657C68.9951 2.89665 68.6174 3.26075 68.3439 3.72889C68.0704 4.18402 67.9337 4.71067 67.9337 5.30882C67.9337 6.23211 68.2332 6.97333 68.8323 7.53249C69.4445 8.07866 70.2064 8.35174 71.118 8.35174C71.7302 8.35174 72.2772 8.2152 72.759 7.94211C73.2409 7.65603 73.6186 7.27891 73.8921 6.81077C74.1786 6.34263 74.3219 5.83549 74.3219 5.28936C74.3219 4.70418 74.1786 4.18402 73.8921 3.72889C73.6186 3.26075 73.2409 2.89665 72.759 2.63657C72.2771 2.37649 71.7301 2.24645 71.118 2.24645H71.118Z" fill="#394364"/>
<path d="M0 34.762V21.1086H2.96942L7.32589 29.7691L11.6238 21.1086H14.5932V34.762H12.0926V25.3407L8.28313 32.8114H6.31006L2.5006 25.3407V34.762H0Z" fill="#305FF0"/>
<path d="M22.5224 34.9956C21.5195 34.9956 20.6144 34.8006 19.8069 34.4104C18.9994 34.0073 18.3546 33.4026 17.8727 32.5963C17.4039 31.7901 17.1694 30.7693 17.1694 29.5339V21.1074H19.6701V29.5535C19.6701 30.6198 19.924 31.4131 20.4319 31.9333C20.9529 32.4534 21.6692 32.7135 22.5808 32.7135C23.4795 32.7135 24.1892 32.4534 24.7102 31.9333C25.2312 31.4131 25.4917 30.6198 25.4917 29.5535V21.1074H27.9923V29.5339C27.9923 30.7693 27.7448 31.7901 27.2499 32.5963C26.755 33.4026 26.0908 34.0073 25.2572 34.4104C24.4367 34.8006 23.525 34.9956 22.5222 34.9956H22.5224Z" fill="#305FF0"/>
<path d="M30.5581 34.762V21.1086H33.0587L39.486 30.725V21.1086H41.9866V34.762H39.486L33.0587 25.1652V34.762H30.5581Z" fill="#305FF0"/>
<path d="M44.6426 34.762V21.1086H47.1432V34.762H44.6426Z" fill="#305FF0"/>
<path d="M55.9855 34.9956C54.6049 34.9956 53.4198 34.703 52.4299 34.1179C51.4401 33.5197 50.6782 32.694 50.1442 31.6407C49.6103 30.5743 49.3433 29.3455 49.3433 27.9541C49.3433 26.5627 49.6103 25.3339 50.1442 24.2675C50.6782 23.2012 51.4401 22.3689 52.4299 21.7707C53.4197 21.1726 54.6049 20.8735 55.9855 20.8735C57.6265 20.8735 58.9679 21.2831 60.0098 22.1023C61.0647 22.9086 61.7224 24.0464 61.9829 25.5158H59.2284C59.0591 24.7746 58.6944 24.1959 58.1344 23.7798C57.5874 23.3507 56.8581 23.1361 55.9464 23.1361C54.6831 23.1361 53.6933 23.5652 52.977 24.4235C52.2607 25.2817 51.9025 26.4586 51.9025 27.954C51.9025 29.4494 52.2607 30.6263 52.977 31.4845C53.6933 32.3298 54.6831 32.7524 55.9464 32.7524C56.858 32.7524 57.5874 32.5574 58.1344 32.1673C58.6944 31.7641 59.0591 31.2115 59.2284 30.5092H61.9829C61.7224 31.9137 61.0647 33.0125 60.0098 33.8057C58.9679 34.5989 57.6265 34.9956 55.9855 34.9956V34.9956Z" fill="#305FF0"/>
<path d="M64.1846 34.762V21.1086H66.6852V34.762H64.1846Z" fill="#305FF0"/>
<path d="M69.3281 34.762V21.1086H74.3879C75.4819 21.1086 76.3871 21.2906 77.1034 21.6547C77.8198 22.0189 78.3537 22.5195 78.7054 23.1567C79.0571 23.7939 79.2329 24.5091 79.2329 25.3023C79.2329 26.0565 79.0636 26.7522 78.725 27.3893C78.3863 28.0135 77.8589 28.5207 77.1426 28.9108C76.4263 29.2879 75.5081 29.4764 74.3881 29.4764H71.8289V34.7625L69.3281 34.762ZM71.8287 27.4474H74.2316C75.1042 27.4474 75.7293 27.2588 76.1071 26.8817C76.4978 26.4916 76.6932 25.9649 76.6932 25.3018C76.6932 24.6256 76.4978 24.0989 76.1071 23.7218C75.7294 23.3317 75.1043 23.1367 74.2316 23.1367H71.8287V27.4474Z" fill="#305FF0"/>
<path d="M78.8726 34.762L83.8738 21.1086H86.6869L91.6881 34.762H89.0312L87.9372 31.602H82.6038L81.4903 34.762H78.8726ZM83.2876 29.6515H87.2534L85.2607 23.9753L83.2876 29.6515Z" fill="#305FF0"/>
<path d="M93.4478 34.762V21.1086H95.9484V32.8121H102.004V34.7627L93.4478 34.762Z" fill="#305FF0"/>
</svg>
