<svg width="512" height="512" viewBox="0 0 512 512" fill="none" xmlns="http://www.w3.org/2000/svg">
<circle cx="256" cy="256" r="256" fill="#305FF0"/>
<path d="M171.172 155.193C170.958 155.375 170.745 155.556 170.532 155.739C170.221 156.002 169.911 156.266 169.603 156.532C169.297 156.798 168.993 157.065 168.69 157.334C168.385 157.602 168.081 157.872 167.778 158.144C167.475 158.415 167.174 158.688 166.874 158.962C166.574 159.237 166.276 159.512 165.979 159.789C165.682 160.069 165.386 160.351 165.092 160.634C164.798 160.911 164.505 161.189 164.214 161.469C164.125 161.557 164.037 161.645 163.949 161.734L224.721 230.136C226.783 227.611 229.158 225.359 231.79 223.434L171.172 155.193ZM337.697 155.193L277.062 223.434C279.696 225.358 282.075 227.611 284.139 230.137L344.911 161.734C344.862 161.682 344.814 161.631 344.766 161.58C344.474 161.297 344.181 161.016 343.887 160.736C343.593 160.456 343.297 160.178 343.001 159.9C342.703 159.623 342.405 159.348 342.105 159.073C341.808 158.796 341.51 158.52 341.21 158.246C340.907 157.975 340.603 157.705 340.298 157.436C339.992 157.167 339.685 156.9 339.377 156.635C339.071 156.366 338.764 156.099 338.456 155.833C338.204 155.619 337.951 155.406 337.697 155.193L337.697 155.193Z" fill="#30B5F0"/>
<path d="M254.365 120.01C180.209 120.01 120 180.237 120 254.391C120 328.546 180.212 388.757 254.365 388.757C328.236 388.757 388.205 328.986 388.673 255.221C388.708 255.014 388.729 254.805 388.737 254.595C388.744 254.526 388.749 254.456 388.753 254.387C388.749 254.118 388.722 253.849 388.673 253.585C388.229 179.807 328.251 120 254.365 120V120.01ZM254.365 129.746C323.259 129.746 378.998 185.5 378.998 254.396C378.998 323.29 323.261 379.029 254.365 379.029C185.47 379.029 129.732 323.291 129.732 254.396C129.732 185.502 185.47 129.746 254.365 129.746Z" fill="#30B5F0"/>
<path d="M314.481 185.693C313.826 185.699 313.178 185.837 312.578 186.099C311.977 186.36 311.435 186.741 310.985 187.217C310.098 188.155 309.62 189.407 309.656 190.698C309.692 191.988 310.239 193.211 311.177 194.098C335.859 217.362 343.866 253.292 331.404 284.839C318.941 316.384 288.553 337.129 254.636 337.242C220.718 337.354 190.186 316.798 177.515 285.336C164.844 253.874 172.62 217.911 197.148 194.489C198.081 193.598 198.623 192.372 198.653 191.082C198.683 189.792 198.199 188.542 197.308 187.608C196.417 186.675 195.191 186.133 193.901 186.103C192.611 186.073 191.361 186.557 190.427 187.448C163.039 213.605 154.336 253.851 168.484 288.979C182.633 324.11 216.795 347.089 254.666 346.964C292.538 346.838 326.549 323.64 340.463 288.417C354.379 253.194 345.422 213.004 317.862 187.026C316.948 186.161 315.735 185.684 314.477 185.694L314.481 185.693Z" fill="#30B5F0"/>
<path d="M254.368 211.178C230.558 211.178 211.156 230.579 211.156 254.39C211.156 278.2 230.558 297.602 254.368 297.602C277.514 297.602 296.152 279.161 297.195 256.266C297.446 255.673 297.577 255.035 297.58 254.39C297.581 253.734 297.45 253.085 297.195 252.481C296.135 229.602 277.502 211.178 254.368 211.178V211.178ZM254.368 220.914C272.917 220.914 287.844 235.84 287.844 254.39C287.844 272.94 272.917 287.866 254.368 287.866C235.819 287.866 220.892 272.94 220.892 254.39C220.892 235.84 235.819 220.914 254.368 220.914V220.914Z" fill="#F3F4F8"/>
<path d="M275.88 252.741C275.93 253.854 275.546 254.942 274.808 255.776C274.07 256.61 273.036 257.124 271.926 257.21C270.815 257.295 269.715 256.945 268.858 256.234C268.001 255.523 267.455 254.506 267.334 253.399C267.213 252.292 267.528 251.182 268.211 250.302C268.895 249.423 269.894 248.845 270.996 248.689C272.099 248.533 273.219 248.812 274.12 249.467C275.02 250.123 275.63 251.102 275.821 252.2L275.88 252.741Z" fill="#F3F4F8"/>
<path d="M250.502 242.632C250.595 244.693 249.883 246.709 248.516 248.254C247.149 249.798 245.234 250.751 243.178 250.909C241.121 251.067 239.083 250.419 237.496 249.102C235.908 247.785 234.896 245.902 234.672 243.851C234.448 241.8 235.031 239.743 236.297 238.114C237.563 236.486 239.414 235.414 241.456 235.125C243.499 234.836 245.573 235.354 247.241 236.567C248.909 237.781 250.039 239.596 250.393 241.629L250.502 242.632Z" fill="#F3F4F8"/>
<path d="M258.143 270.243C258.204 271.601 257.735 272.929 256.834 273.947C255.933 274.965 254.671 275.593 253.316 275.697C251.96 275.801 250.618 275.374 249.571 274.506C248.525 273.638 247.858 272.397 247.711 271.046C247.563 269.694 247.947 268.339 248.782 267.266C249.616 266.192 250.835 265.486 252.181 265.296C253.528 265.105 254.895 265.446 255.994 266.246C257.093 267.046 257.838 268.242 258.071 269.582L258.143 270.243Z" fill="#F3F4F8"/>
<path d="M207.95 288.903C209.58 287.119 211.839 286.04 214.25 285.893C216.661 285.746 219.035 286.542 220.869 288.114C222.703 289.686 223.854 291.91 224.078 294.315C224.301 296.72 223.58 299.118 222.068 301.001C220.555 302.885 218.369 304.105 215.972 304.405C213.575 304.706 211.155 304.061 209.225 302.609C207.294 301.157 206.005 299.011 205.629 296.625C205.253 294.238 205.82 291.799 207.21 289.824L207.95 288.903Z" fill="#F3F4F8"/>
<path d="M226.36 280.229L208.812 297.777L212.037 301.001L229.584 283.469L226.36 280.229V280.229Z" fill="#F3F4F8"/>
<path d="M315.858 253.306C313.488 252.837 311.03 253.309 309.002 254.621C306.973 255.933 305.536 257.983 304.992 260.337C304.448 262.69 304.841 265.163 306.089 267.232C307.336 269.301 309.339 270.803 311.674 271.421C314.009 272.039 316.493 271.725 318.601 270.544C320.708 269.363 322.273 267.409 322.965 265.095C323.658 262.78 323.422 260.287 322.309 258.144C321.196 256 319.292 254.373 317.001 253.608L315.858 253.306Z" fill="#F3F4F8"/>
<path d="M295.92 257.233L295.23 261.756L319.756 265.461L320.445 260.954L295.92 257.232V257.233Z" fill="#F3F4F8"/>
<path d="M294.654 300.531C293.455 298.434 291.488 296.885 289.167 296.213C286.847 295.541 284.357 295.798 282.222 296.929C280.088 298.061 278.478 299.978 277.732 302.276C276.987 304.573 277.164 307.071 278.227 309.24C279.29 311.409 281.156 313.08 283.429 313.898C285.701 314.716 288.203 314.618 290.405 313.624C292.607 312.631 294.336 310.82 295.226 308.574C296.116 306.328 296.097 303.824 295.174 301.592L294.654 300.531Z" fill="#F3F4F8"/>
<path d="M278.674 287.998L274.809 290.436L288.09 311.4L291.94 308.962L278.675 287.998H278.674Z" fill="#F3F4F8"/>
<path d="M227.953 199.646C228.569 201.982 230.068 203.987 232.135 205.236C234.202 206.486 236.675 206.883 239.029 206.342C241.383 205.802 243.435 204.366 244.75 202.34C246.065 200.314 246.54 197.855 246.074 195.485C245.609 193.114 244.239 191.018 242.256 189.639C240.272 188.261 237.83 187.708 235.446 188.098C233.062 188.488 230.923 189.79 229.482 191.729C228.041 193.667 227.411 196.091 227.725 198.486L227.953 199.646Z" fill="#F3F4F8"/>
<path d="M237.198 190.826L232.852 192.19L240.23 215.865L244.593 214.501L237.198 190.826Z" fill="#F3F4F8"/>
<path d="M192.417 256.588C194.795 257.014 197.245 256.499 199.249 255.151C201.254 253.803 202.655 251.728 203.157 249.365C203.659 247.002 203.221 244.537 201.938 242.49C200.654 240.444 198.624 238.978 196.279 238.401C193.933 237.825 191.455 238.183 189.369 239.401C187.283 240.619 185.752 242.601 185.102 244.928C184.451 247.254 184.731 249.742 185.882 251.866C187.033 253.99 188.965 255.582 191.27 256.306L192.417 256.588Z" fill="#F3F4F8"/>
<path d="M188.253 244.496L187.66 249.019L212.249 252.292L212.843 247.768L188.253 244.496Z" fill="#F3F4F8"/>
</svg>
