<svg width="512" height="512" viewBox="0 0 512 512" fill="none" xmlns="http://www.w3.org/2000/svg">
<circle cx="256" cy="256" r="256" fill="#F5F0E3"/>
<mask id="mask0" mask-type="alpha" maskUnits="userSpaceOnUse" x="184" y="104" width="141" height="300">
<path fill-rule="evenodd" clip-rule="evenodd" d="M184 133.328C184 117.131 197.131 104 213.328 104C229.526 104 242.657 117.131 242.657 133.328V226.99H266.309V132.855C266.309 116.919 279.228 104 295.164 104C311.1 104 324.019 116.919 324.019 132.855V257.737C324.019 269.459 317.029 279.548 306.991 284.065V371.739C306.991 389.504 292.589 403.906 274.824 403.906H238.874C221.108 403.906 206.707 389.504 206.707 371.739V285.842C193.698 282.84 184 271.184 184 257.264V133.328Z" fill="#9C2259"/>
</mask>
<g mask="url(#mask0)">
<rect x="75.2031" y="103.055" width="335.025" height="335.025" fill="#2B62CA"/>
<mask id="mask1" mask-type="alpha" maskUnits="userSpaceOnUse" x="75" y="103" width="336" height="336">
<rect x="75.2031" y="103.055" width="335.025" height="335.025" fill="#2B62CA"/>
</mask>
<g mask="url(#mask1)">
<path d="M249.904 309.024C249.242 309.364 248.981 310.177 249.321 310.839C249.661 311.501 250.474 311.761 251.136 311.421L249.904 309.024ZM273.292 281.062C273.287 280.318 272.679 279.719 271.935 279.724C271.191 279.729 270.592 280.336 270.597 281.08L273.292 281.062ZM251.136 311.421C254.854 309.511 260.373 305.742 264.968 300.583C269.559 295.429 273.344 288.753 273.292 281.062L270.597 281.08C270.642 287.852 267.305 293.907 262.956 298.79C258.61 303.669 253.368 307.244 249.904 309.024L251.136 311.421Z" fill="#76E731"/>
<path d="M241.404 312.944C245.206 312.036 248.565 315.584 247.45 319.331V319.331C246.335 323.078 241.583 324.212 238.896 321.373V321.373C236.209 318.535 237.602 313.851 241.404 312.944V312.944Z" fill="#9C2259"/>
<path d="M244.872 318.454C246.919 315.124 251.803 315.258 253.664 318.695V318.695C255.525 322.133 252.966 326.296 249.059 326.188V326.188C245.152 326.081 242.826 321.784 244.872 318.454V318.454Z" fill="#C93276"/>
<path d="M257.723 309.61C253.921 310.518 250.562 306.969 251.677 303.223V303.223C252.792 299.476 257.544 298.342 260.231 301.18V301.18C262.918 304.019 261.525 308.702 257.723 309.61V309.61Z" fill="#9C2259"/>
<path d="M254.052 304.559C252.005 307.889 247.121 307.755 245.26 304.317V304.317C243.399 300.88 245.957 296.717 249.865 296.824V296.824C253.772 296.931 256.098 301.228 254.052 304.559V304.559Z" fill="#C93276"/>
<path d="M247.571 303.728C248.479 307.53 244.931 310.889 241.184 309.774V309.774C237.438 308.659 236.303 303.907 239.142 301.219V301.219C241.981 298.532 246.664 299.926 247.571 303.728V303.728Z" fill="#9C2259"/>
<path d="M242.714 307.577C246.044 309.623 245.91 314.508 242.472 316.368V316.368C239.035 318.229 234.872 315.671 234.979 311.764V311.764C235.086 307.856 239.383 305.53 242.714 307.577V307.577Z" fill="#C93276"/>
<path d="M266.87 285.489C270.2 287.535 270.066 292.42 266.628 294.281V294.281C263.191 296.141 259.028 293.583 259.135 289.676V289.676C259.242 285.768 263.539 283.442 266.87 285.489V285.489Z" fill="#76E731"/>
<path d="M251.216 320.052C250.308 316.25 253.856 312.891 257.603 314.006V314.006C261.35 315.121 262.484 319.874 259.645 322.561V322.561C256.807 325.248 252.123 323.854 251.216 320.052V320.052Z" fill="#9C2259"/>
<path d="M256.831 316.545C253.501 314.499 253.635 309.614 257.073 307.754V307.754C260.51 305.893 264.673 308.451 264.566 312.358V312.358C264.459 316.266 260.162 318.592 256.831 316.545V316.545Z" fill="#C93276"/>
<circle cx="249.241" cy="311.886" r="6.87962" transform="rotate(-133.428 249.241 311.886)" fill="#ED6D4A"/>
<path d="M335.462 106.994C336.114 106.636 336.353 105.816 335.994 105.164C335.636 104.512 334.817 104.273 334.165 104.631L335.462 106.994ZM312.85 135.587C312.875 136.331 313.499 136.913 314.242 136.888C314.986 136.862 315.569 136.239 315.543 135.495L312.85 135.587ZM334.165 104.631C330.5 106.643 325.087 110.562 320.635 115.845C316.187 121.123 312.587 127.9 312.85 135.587L315.543 135.495C315.312 128.727 318.481 122.583 322.696 117.582C326.906 112.586 332.048 108.868 335.462 106.994L334.165 104.631Z" fill="#76E731"/>
<path d="M327.628 106.622C331.403 105.61 334.858 109.065 333.847 112.841V112.841C332.835 116.616 328.115 117.881 325.351 115.117V115.117C322.587 112.353 323.852 107.633 327.628 106.622V106.622Z" fill="#9C2259"/>
<path d="M319.145 130.984C315.759 129.03 315.759 124.143 319.145 122.189V122.189C322.53 120.235 326.761 122.678 326.761 126.587V126.587C326.761 130.495 322.53 132.939 319.145 130.984V130.984Z" fill="#76E731"/>
<path d="M333.844 96.0041C334.856 99.7798 331.401 103.235 327.625 102.223V102.223C323.849 101.211 322.584 96.4918 325.348 93.7278V93.7278C328.112 90.9638 332.832 92.2284 333.844 96.0041V96.0041Z" fill="#9C2259"/>
<path d="M328.325 99.6644C331.71 101.619 331.71 106.505 328.325 108.459V108.459C324.94 110.414 320.708 107.971 320.708 104.062V104.062C320.708 100.153 324.94 97.7099 328.325 99.6644V99.6644Z" fill="#C93276"/>
<path d="M187.238 370.213C187.596 370.865 188.415 371.104 189.067 370.746C189.72 370.387 189.958 369.568 189.6 368.916L187.238 370.213ZM158.644 347.601C157.901 347.626 157.318 348.25 157.344 348.994C157.369 349.738 157.993 350.32 158.737 350.294L158.644 347.601ZM189.6 368.916C187.588 365.252 183.669 359.838 178.386 355.386C173.108 350.938 166.331 347.338 158.644 347.601L158.737 350.294C165.504 350.063 171.649 353.233 176.649 357.447C181.645 361.657 185.363 366.799 187.238 370.213L189.6 368.916Z" fill="#76E731"/>
<path d="M191.392 378.599C190.38 374.823 193.835 371.368 197.611 372.38V372.38C201.387 373.392 202.651 378.111 199.887 380.875V380.875C197.123 383.639 192.404 382.375 191.392 378.599V378.599Z" fill="#9C2259"/>
<path d="M196.801 374.984C193.416 373.029 193.416 368.143 196.801 366.189V366.189C200.187 364.234 204.418 366.677 204.418 370.586V370.586C204.418 374.495 200.187 376.938 196.801 374.984V374.984Z" fill="#C93276"/>
<path d="M187.61 362.381C188.622 366.157 185.167 369.612 181.391 368.6V368.6C177.615 367.588 176.351 362.869 179.115 360.105V360.105C181.879 357.34 186.598 358.605 187.61 362.381V362.381Z" fill="#9C2259"/>
<path d="M182.666 366.19C186.051 368.144 186.051 373.03 182.665 374.985V374.985C179.28 376.939 175.049 374.496 175.049 370.587V370.587C175.049 366.678 179.28 364.235 182.666 366.19V366.19Z" fill="#C93276"/>
<path d="M182.011 372.69C185.787 371.678 189.242 375.133 188.23 378.909V378.909C187.218 382.684 182.499 383.949 179.735 381.185V381.185C176.971 378.421 178.235 373.701 182.011 372.69V372.69Z" fill="#9C2259"/>
<path d="M185.99 377.439C187.944 374.054 192.83 374.054 194.785 377.439V377.439C196.739 380.824 194.296 385.055 190.387 385.055V385.055C186.478 385.055 184.035 380.824 185.99 377.439V377.439Z" fill="#C93276"/>
<path d="M198.229 368.601C194.454 369.613 190.999 366.158 192.01 362.382V362.382C193.022 358.606 197.742 357.342 200.506 360.106V360.106C203.27 362.87 202.005 367.589 198.229 368.601V368.601Z" fill="#9C2259"/>
<path d="M194.567 363.078C192.613 366.464 187.727 366.464 185.772 363.078V363.078C183.818 359.693 186.261 355.462 190.17 355.462V355.462C194.078 355.462 196.522 359.693 194.567 363.078V363.078Z" fill="#C93276"/>
<circle cx="190.119" cy="370.799" r="6.87962" transform="rotate(135 190.119 370.799)" fill="#ED6D4A"/>
<path d="M134.825 196.779C133.394 197.541 132.852 199.318 133.614 200.749C134.376 202.18 136.153 202.722 137.584 201.96L134.825 196.779ZM184.869 135.147C184.835 133.526 183.493 132.24 181.872 132.275C180.252 132.309 178.966 133.651 179.001 135.272L184.869 135.147ZM137.584 201.96C145.62 197.682 157.518 189.299 167.362 177.92C177.197 166.55 185.226 151.894 184.869 135.147L179.001 135.272C179.315 150.016 172.24 163.308 162.923 174.079C153.614 184.841 142.312 192.793 134.825 196.779L137.584 201.96Z" fill="#76E731"/>
<path d="M191.911 287.252C183.421 286.623 178.796 277.039 183.586 270.001V270.001C188.375 262.964 198.988 263.75 202.688 271.417V271.417C206.388 279.084 200.401 287.881 191.911 287.252V287.252Z" fill="#9C2259"/>
<path d="M188.36 273.53C181.912 279.089 171.865 275.582 170.275 267.219V267.219C168.685 258.856 176.745 251.908 184.783 254.713V254.713C192.821 257.518 194.808 267.972 188.36 273.53V273.53Z" fill="#C93276"/>
<path d="M160.124 296.296C166.573 290.737 176.62 294.244 178.209 302.607V302.607C179.799 310.97 171.739 317.918 163.701 315.113V315.113C155.664 312.308 153.676 301.854 160.124 296.296V296.296Z" fill="#C93276"/>
<path d="M173.027 302.303C173.656 293.814 183.24 289.188 190.278 293.978V293.978C197.316 298.768 196.529 309.38 188.862 313.08V313.08C181.195 316.78 172.398 310.793 173.027 302.303V302.303Z" fill="#9C2259"/>
<path d="M185.645 297.526C180.087 291.078 183.593 281.031 191.957 279.441V279.441C200.32 277.851 207.268 285.911 204.463 293.949V293.949C201.658 301.987 191.204 303.974 185.645 297.526V297.526Z" fill="#C93276"/>
<circle cx="174.96" cy="284.271" r="14.9829" transform="rotate(64.2379 174.96 284.271)" fill="#ED6D4A"/>
<path d="M340.67 290.453C341.056 292.028 342.645 292.991 344.219 292.605C345.793 292.22 346.757 290.631 346.371 289.056L340.67 290.453ZM293.266 226.768C291.686 226.402 290.11 227.386 289.744 228.965C289.378 230.544 290.362 232.121 291.941 232.486L293.266 226.768ZM346.371 289.056C344.204 280.214 339.011 266.617 330.407 254.273C321.811 241.941 309.584 230.548 293.266 226.768L291.941 232.486C306.309 235.815 317.447 245.945 325.592 257.63C333.728 269.303 338.651 282.215 340.67 290.453L346.371 289.056Z" fill="#76E731"/>
<path d="M345.865 274.19C345.865 282.703 336.649 288.023 329.276 283.767V283.767C321.904 279.51 321.904 268.869 329.276 264.612V264.612C336.649 260.356 345.865 265.676 345.865 274.19V274.19Z" fill="#9C2259"/>
<path d="M333.309 279.41C339.329 285.429 336.574 295.708 328.351 297.911V297.911C320.128 300.115 312.604 292.59 314.807 284.367V284.367C317.011 276.144 327.289 273.39 333.309 279.41V279.41Z" fill="#C93276"/>
<path d="M328.271 292.717C336.784 292.717 342.105 301.933 337.848 309.305V309.305C333.592 316.678 322.95 316.678 318.694 309.305V309.305C314.437 301.933 319.758 292.717 328.271 292.717V292.717Z" fill="#9C2259"/>
<path d="M299.393 242.612C305.413 236.593 315.692 239.347 317.895 247.57V247.57C320.099 255.793 312.574 263.318 304.351 261.114V261.114C296.128 258.911 293.374 248.632 299.393 242.612V242.612Z" fill="#76E731"/>
<path d="M247.453 407.979C246.032 408.759 245.513 410.543 246.293 411.964C247.073 413.384 248.857 413.904 250.278 413.124L247.453 407.979ZM296.699 345.706C296.644 344.087 295.285 342.818 293.666 342.874C292.046 342.929 290.777 344.287 290.833 345.907L296.699 345.706ZM250.278 413.124C258.258 408.742 270.048 400.207 279.744 388.701C289.431 377.206 297.271 362.448 296.699 345.706L290.833 345.907C291.337 360.647 284.434 374.028 275.256 384.919C266.086 395.799 254.888 403.896 247.453 407.979L250.278 413.124Z" fill="#76E731"/>
<path d="M264.507 408.788C256.284 410.991 248.759 403.467 250.963 395.244V395.244C253.166 387.021 263.445 384.267 269.464 390.286V390.286C275.484 396.306 272.73 406.585 264.507 408.788V408.788Z" fill="#9C2259"/>
<path d="M256.217 398.012C251.961 405.384 241.32 405.384 237.063 398.012V398.012C232.806 390.639 238.127 381.423 246.64 381.423V381.423C255.153 381.423 260.474 390.639 256.217 398.012V398.012Z" fill="#C93276"/>
<path d="M242.055 396.589C244.259 404.812 236.734 412.337 228.511 410.133V410.133C220.288 407.93 217.534 397.651 223.554 391.632V391.632C229.573 385.612 239.852 388.366 242.055 396.589V396.589Z" fill="#9C2259"/>
<path d="M231.713 405.259C239.085 409.516 239.085 420.157 231.713 424.414V424.414C224.34 428.67 215.124 423.35 215.124 414.837V414.837C215.124 406.324 224.34 401.003 231.713 405.259V405.259Z" fill="#C93276"/>
<path d="M282.982 355.73C290.355 359.987 290.355 370.628 282.982 374.885V374.885C275.61 379.141 266.394 373.82 266.394 365.307V365.307C266.394 356.794 275.61 351.474 282.982 355.73V355.73Z" fill="#76E731"/>
<path d="M262.987 423.938C255.614 419.682 255.614 409.04 262.987 404.784V404.784C270.359 400.527 279.575 405.848 279.575 414.361V414.361C279.575 422.874 270.359 428.195 262.987 423.938V423.938Z" fill="#C93276"/>
<circle cx="246.176" cy="414.251" r="14.9829" transform="rotate(-135 246.176 414.251)" fill="#ED6D4A"/>
<path d="M264.454 156.893C263.608 155.511 261.801 155.076 260.419 155.922C259.036 156.768 258.601 158.574 259.447 159.957L264.454 156.893ZM328.97 203.16C330.586 203.029 331.789 201.613 331.657 199.997C331.526 198.382 330.11 197.179 328.494 197.31L328.97 203.16ZM259.447 159.957C264.199 167.722 273.278 179.099 285.226 188.244C297.164 197.38 312.274 204.518 328.97 203.16L328.494 197.31C313.794 198.506 300.104 192.239 288.794 183.583C277.495 174.934 268.881 164.129 264.454 156.893L259.447 159.957Z" fill="#76E731"/>
<path d="M254.561 139.071C257.148 147.182 249.985 155.051 241.668 153.237V153.237C233.35 151.422 230.116 141.284 235.847 134.988V134.988C241.577 128.692 251.974 130.961 254.561 139.071V139.071Z" fill="#9C2259"/>
<path d="M243.16 147.491C250.724 151.397 251.224 162.026 244.059 166.625V166.625C236.895 171.223 227.439 166.341 227.04 157.837V157.837C226.64 149.333 235.595 143.586 243.16 147.491V147.491Z" fill="#C93276"/>
<path d="M264.447 173.968C261.86 165.857 269.023 157.988 277.34 159.802V159.802C285.658 161.617 288.892 171.755 283.161 178.051V178.051C277.431 184.347 267.034 182.078 264.447 173.968V173.968Z" fill="#9C2259"/>
<path d="M274.825 165.179C267.26 161.273 266.761 150.643 273.925 146.045V146.045C281.089 141.447 290.545 146.329 290.945 154.833V154.833C291.345 163.337 282.389 169.084 274.825 165.179V165.179Z" fill="#C93276"/>
<path d="M275.575 150.969C267.465 153.556 259.595 146.393 261.41 138.076V138.076C263.224 129.758 273.363 126.524 279.658 132.255V132.255C285.954 137.985 283.686 148.382 275.575 150.969V150.969Z" fill="#9C2259"/>
<path d="M266.433 141.044C262.527 148.609 251.897 149.109 247.299 141.944V141.944C242.701 134.78 247.583 125.324 256.087 124.924V124.924C264.59 124.525 270.338 133.48 266.433 141.044V141.044Z" fill="#C93276"/>
<path d="M318.311 189.929C314.406 197.494 303.776 197.993 299.178 190.829V190.829C294.58 183.664 299.462 174.209 307.966 173.809V173.809C316.469 173.409 322.217 182.365 318.311 189.929V189.929Z" fill="#76E731"/>
<path d="M240.714 161.523C248.824 158.936 256.694 166.099 254.879 174.416V174.416C253.065 182.734 242.927 185.968 236.631 180.237V180.237C230.335 174.507 232.603 164.11 240.714 161.523V161.523Z" fill="#9C2259"/>
<path d="M249.243 173.161C253.149 165.596 263.778 165.096 268.377 172.261V172.261C272.975 179.425 268.093 188.881 259.589 189.281V189.281C251.085 189.681 245.338 180.725 249.243 173.161V173.161Z" fill="#C93276"/>
<circle cx="258.13" cy="155.911" r="14.9829" transform="rotate(-47.6921 258.13 155.911)" fill="#ED6D4A"/>
<path d="M226.898 229.775C227.048 230.389 227.668 230.765 228.281 230.614C228.895 230.464 229.271 229.844 229.12 229.231L226.898 229.775ZM208.418 204.948C207.802 204.806 207.187 205.189 207.045 205.805C206.902 206.42 207.286 207.035 207.901 207.177L208.418 204.948ZM229.12 229.231C228.275 225.784 226.251 220.483 222.897 215.671C219.546 210.863 214.779 206.422 208.418 204.948L207.901 207.177C213.502 208.475 217.845 212.424 221.02 216.979C224.192 221.53 226.111 226.564 226.898 229.775L229.12 229.231Z" fill="#76E731"/>
<path d="M228.459 237.566C228.459 234.247 232.052 232.173 234.926 233.832V233.832C237.8 235.492 237.8 239.64 234.926 241.3V241.3C232.052 242.959 228.459 240.885 228.459 237.566V237.566Z" fill="#9C2259"/>
<path d="M233.695 235.789C231.349 233.442 232.422 229.435 235.628 228.576V228.576C238.834 227.717 241.767 230.651 240.908 233.857V233.857C240.049 237.062 236.042 238.136 233.695 235.789V235.789Z" fill="#C93276"/>
<path d="M228.923 223.434C228.923 226.752 225.331 228.827 222.457 227.167V227.167C219.583 225.508 219.583 221.359 222.457 219.7V219.7C225.331 218.041 228.923 220.115 228.923 223.434V223.434Z" fill="#9C2259"/>
<path d="M224.027 225.47C226.374 227.817 225.3 231.824 222.095 232.683V232.683C218.889 233.542 215.956 230.608 216.815 227.403V227.403C217.674 224.197 221.681 223.123 224.027 225.47V225.47Z" fill="#C93276"/>
<path d="M222.067 230.658C225.385 230.658 227.46 234.251 225.8 237.125V237.125C224.141 239.999 219.992 239.999 218.333 237.125V237.125C216.674 234.251 218.748 230.658 222.067 230.658V230.658Z" fill="#9C2259"/>
<path d="M224.287 235.428C226.633 233.081 230.641 234.154 231.5 237.36V237.36C232.358 240.566 229.425 243.499 226.219 242.64V242.64C223.014 241.781 221.94 237.774 224.287 235.428V235.428Z" fill="#C93276"/>
<path d="M210.81 211.125C213.157 208.778 217.164 209.852 218.023 213.057V213.057C218.882 216.263 215.949 219.196 212.743 218.338V218.338C209.537 217.479 208.463 213.471 210.81 211.125V211.125Z" fill="#76E731"/>
<path d="M236.265 230.868C232.947 230.868 230.872 227.276 232.532 224.402V224.402C234.191 221.528 238.34 221.528 239.999 224.402V224.402C241.658 227.276 239.584 230.868 236.265 230.868V230.868Z" fill="#9C2259"/>
<path d="M234.475 225.535C232.128 227.882 228.121 226.808 227.262 223.602V223.602C226.403 220.397 229.337 217.463 232.542 218.322V218.322C235.748 219.181 236.822 223.188 234.475 225.535V225.535Z" fill="#C93276"/>
<circle cx="229.13" cy="230.889" r="5.84097" transform="rotate(150 229.13 230.889)" fill="#ED6D4A"/>
<path d="M200.861 104.032C200.848 104.664 201.349 105.187 201.98 105.2C202.612 105.214 203.135 104.713 203.149 104.081L200.861 104.032ZM189.436 75.2677C188.879 74.9706 188.186 75.1819 187.889 75.7396C187.592 76.2973 187.803 76.9902 188.361 77.2873L189.436 75.2677ZM203.149 104.081C203.225 100.533 202.642 94.8887 200.647 89.3725C198.655 83.8613 195.2 78.3376 189.436 75.2677L188.361 77.2873C193.435 79.9902 196.607 84.9289 198.495 90.1505C200.381 95.367 200.932 100.726 200.861 104.032L203.149 104.081Z" fill="#76E731"/>
<path d="M200.357 111.961C201.216 108.756 205.223 107.682 207.57 110.029V110.029C209.916 112.375 208.843 116.383 205.637 117.241V117.241C202.431 118.1 199.498 115.167 200.357 111.961V111.961Z" fill="#9C2259"/>
<path d="M205.869 111.601C204.21 108.727 206.284 105.134 209.603 105.134V105.134C212.921 105.134 214.996 108.727 213.336 111.601V111.601C211.677 114.475 207.528 114.475 205.869 111.601V111.601Z" fill="#C93276"/>
<path d="M199.205 99.131C200.865 102.005 198.79 105.598 195.472 105.598V105.598C192.153 105.598 190.079 102.005 191.738 99.131V99.131C193.397 96.2569 197.546 96.2569 199.205 99.131V99.131Z" fill="#C93276"/>
<path d="M195.968 103.634C199.174 104.493 200.247 108.5 197.901 110.847V110.847C195.554 113.193 191.547 112.12 190.688 108.914V108.914C189.829 105.708 192.762 102.775 195.968 103.634V103.634Z" fill="#9C2259"/>
<path d="M196.879 108.816C199.753 107.157 203.346 109.231 203.346 112.55V112.55C203.346 115.868 199.753 117.943 196.879 116.283V116.283C194.005 114.624 194.005 110.475 196.879 108.816V108.816Z" fill="#C93276"/>
<path d="M209.63 107.512C206.424 106.653 205.35 102.646 207.697 100.299V100.299C210.044 97.9526 214.051 99.0263 214.91 102.232V102.232C215.769 105.438 212.835 108.371 209.63 107.512V107.512Z" fill="#9C2259"/>
<path d="M209.281 101.898C206.407 103.558 202.814 101.483 202.814 98.1647V98.1647C202.814 94.846 206.407 92.7718 209.281 94.4311V94.4311C212.155 96.0905 212.155 100.239 209.281 101.898V101.898Z" fill="#C93276"/>
<circle cx="202.729" cy="105.686" r="5.84097" transform="rotate(165 202.729 105.686)" fill="#ED6D4A"/>
</g>
</g>
<rect x="282.391" y="171.172" width="24.5979" height="64.3329" rx="12.2989" fill="#422821"/>
<rect x="201.027" y="171.172" width="24.5979" height="64.3329" rx="12.2989" fill="#422821"/>
<path d="M194.406 242.127C194.406 220.704 211.773 203.338 233.195 203.338H280.499C301.921 203.338 319.288 220.704 319.288 242.127V298.891C319.288 320.314 301.921 337.68 280.499 337.68H233.195C211.773 337.68 194.406 320.314 194.406 298.891V242.127Z" fill="#5EBAEA"/>
<rect x="206.383" y="251.076" width="18.211" height="39.6463" rx="5.67644" fill="#171617" fill-opacity="0.8"/>
<mask id="mask2" mask-type="alpha" maskUnits="userSpaceOnUse" x="206" y="251" width="19" height="40">
<rect x="206.383" y="251.076" width="18.211" height="39.6463" rx="5.67644" fill="#550014"/>
</mask>
<g mask="url(#mask2)">
<rect x="216.188" y="248.99" width="8.40508" height="20.8665" rx="2.83822" fill="white"/>
</g>
<rect x="289.508" y="251.076" width="18.211" height="39.6463" rx="5.67644" fill="#171617" fill-opacity="0.8"/>
<mask id="mask3" mask-type="alpha" maskUnits="userSpaceOnUse" x="289" y="251" width="19" height="40">
<rect x="289.508" y="251.076" width="18.211" height="39.6463" rx="5.67644" fill="#550014"/>
</mask>
<g mask="url(#mask3)">
<rect x="299.316" y="248.99" width="8.40508" height="20.8665" rx="2.83822" fill="white"/>
</g>
<circle cx="231.32" cy="372.572" r="10.8708" fill="#422821"/>
<circle cx="283.117" cy="372.572" r="10.8708" fill="#422821"/>
</svg>
