<svg width="90" height="42" viewBox="0 0 90 42" fill="none" xmlns="http://www.w3.org/2000/svg">
<path d="M1.12682 0.706874L3.46908 0.719535C4.69296 0.719535 5.76914 1.16267 6.6976 2.04893C7.62606 2.92675 8.0903 4.01136 8.0903 5.30277C8.0903 6.58574 7.6345 7.68723 6.72292 8.60726C5.81978 9.52728 4.7225 9.98729 3.4311 9.98729H1.11416C0.599281 9.98729 0.278539 9.88179 0.15193 9.67077C0.0506435 9.49352 0 9.22342 0 8.86047V1.82103C0 1.61846 0.00422028 1.47075 0.0126608 1.3779C0.029542 1.28505 0.0717449 1.17533 0.13927 1.04872C0.257438 0.820822 0.58662 0.706874 1.12682 0.706874ZM3.46908 7.74632C4.0768 7.74632 4.62544 7.52264 5.11499 7.07529C5.60455 6.6195 5.84932 6.04976 5.84932 5.36607C5.84932 4.68239 5.60877 4.11265 5.12765 3.65686C4.65498 3.19262 4.0979 2.96051 3.45642 2.96051H2.24097V7.74632H3.46908Z" fill="#2B62CA"/>
<path d="M8.59802 4.44183C8.59802 4.2477 8.60224 4.10421 8.61068 4.01136C8.62756 3.91007 8.66554 3.79613 8.72463 3.66952C8.84279 3.45006 9.17198 3.34034 9.71217 3.34034C10.1173 3.34034 10.4043 3.41208 10.5731 3.55557C10.7166 3.67374 10.7926 3.85521 10.801 4.09999C10.8094 4.18439 10.8137 4.30678 10.8137 4.46715V8.89846C10.8137 9.09259 10.8052 9.2403 10.7883 9.34159C10.7799 9.43443 10.7419 9.54416 10.6744 9.67077C10.5647 9.89023 10.2397 9.99995 9.69951 9.99995C9.16776 9.99995 8.84279 9.88601 8.72463 9.65811C8.66554 9.5315 8.62756 9.42177 8.61068 9.32893C8.60224 9.23608 8.59802 9.08837 8.59802 8.8858V4.44183ZM10.6744 2.09957C10.6153 2.21774 10.5056 2.30214 10.3452 2.35279C10.1848 2.40343 9.96961 2.42875 9.69951 2.42875C9.43785 2.42875 9.22684 2.40343 9.06647 2.35279C8.9061 2.30214 8.79215 2.21352 8.72463 2.08691C8.66554 1.9603 8.62756 1.85057 8.61068 1.75773C8.60224 1.65644 8.59802 1.50873 8.59802 1.3146C8.59802 1.12046 8.60224 0.976973 8.61068 0.884127C8.62756 0.782839 8.66554 0.673112 8.72463 0.554944C8.84279 0.327048 9.17198 0.2131 9.71217 0.2131C10.2439 0.2131 10.5647 0.327048 10.6744 0.554944C10.7419 0.681553 10.7799 0.795501 10.7883 0.896787C10.8052 0.989634 10.8137 1.13312 10.8137 1.32726C10.8137 1.52139 10.8052 1.6691 10.7883 1.77039C10.7799 1.86323 10.7419 1.97296 10.6744 2.09957Z" fill="#2B62CA"/>
<path d="M15.2182 3.32767C16.0622 3.32767 16.7628 3.65264 17.3199 4.30256C17.8854 4.94405 18.1682 5.72902 18.1682 6.65748V8.8858C18.1682 9.07993 18.1597 9.22764 18.1428 9.32893C18.1344 9.42177 18.1006 9.52728 18.0415 9.64545C17.9234 9.87334 17.5942 9.98729 17.054 9.98729C16.4547 9.98729 16.1087 9.83114 16.0158 9.51884C15.9652 9.37535 15.9398 9.16012 15.9398 8.87314V6.64482C15.9398 6.29876 15.8386 6.02866 15.636 5.83453C15.4418 5.64039 15.176 5.54333 14.8383 5.54333C14.5092 5.54333 14.2391 5.64461 14.028 5.84719C13.8255 6.04976 13.7242 6.31564 13.7242 6.64482V8.8858C13.7242 9.07993 13.7157 9.22764 13.6989 9.32893C13.6904 9.42177 13.6524 9.52728 13.5849 9.64545C13.4752 9.87334 13.1502 9.98729 12.61 9.98729C12.0783 9.98729 11.7533 9.87334 11.6351 9.64545C11.5761 9.51884 11.5381 9.40911 11.5212 9.31627C11.5128 9.21498 11.5085 9.06727 11.5085 8.87314V4.39119C11.5085 4.20549 11.5128 4.06623 11.5212 3.97338C11.5381 3.87209 11.5803 3.76236 11.6478 3.6442C11.766 3.43318 12.0909 3.32767 12.6227 3.32767C13.1376 3.32767 13.4541 3.42474 13.5723 3.61887C13.6567 3.76236 13.6989 3.9354 13.6989 4.13797C13.7326 4.07889 13.8086 3.99448 13.9268 3.88475C14.0449 3.77503 14.1589 3.6864 14.2686 3.61887C14.5556 3.42474 14.8721 3.32767 15.2182 3.32767Z" fill="#2B62CA"/>
<path d="M22.124 0.200439L22.4152 0.263744C23.2002 0.516961 23.7657 0.702654 24.1117 0.820822C24.4662 0.93899 24.6435 1.14578 24.6435 1.4412C24.6435 1.60158 24.5971 1.77039 24.5042 1.94764C24.2763 2.39499 24.0231 2.61867 23.7446 2.61867C23.6686 2.61867 23.5336 2.58912 23.3394 2.53004L22.124 1.99828L20.9465 2.50472C20.8284 2.5638 20.6849 2.59334 20.516 2.59334C20.1953 2.59334 19.9336 2.37811 19.7311 1.94764C19.6298 1.72818 19.5791 1.55093 19.5791 1.41588C19.5791 1.14578 19.7395 0.955871 20.0603 0.846144L21.8201 0.263744L22.124 0.200439ZM25.3019 5.87251C25.3019 6.38738 25.171 6.77143 24.9094 7.02465C24.6562 7.26943 24.3734 7.39181 24.0611 7.39181H21.0605C21.0605 7.62815 21.1997 7.8265 21.4783 7.98687C21.7568 8.14725 22.0354 8.22743 22.3139 8.22743C22.8034 8.22743 23.1875 8.17679 23.466 8.0755L23.6053 8.02486C23.8079 7.93201 23.9767 7.88559 24.1117 7.88559C24.3818 7.88559 24.614 8.0755 24.8081 8.45533C24.9178 8.68322 24.9727 8.87736 24.9727 9.03773C24.9727 9.78894 24.0738 10.1645 22.2759 10.1645C21.6513 10.1645 21.0942 10.059 20.6047 9.84802C20.1236 9.62857 19.748 9.34159 19.4779 8.98708C18.9461 8.3034 18.6802 7.53952 18.6802 6.69547C18.6802 5.63195 19.0221 4.78367 19.7058 4.15063C20.3979 3.50915 21.2588 3.1884 22.2886 3.1884C23.4618 3.1884 24.3228 3.60199 24.8714 4.42917C25.1584 4.86808 25.3019 5.34919 25.3019 5.87251ZM22.6304 6.23967C22.9512 6.23967 23.1115 6.10463 23.1115 5.83453C23.1115 5.64039 23.0356 5.48424 22.8836 5.36607C22.7401 5.24791 22.5291 5.18882 22.2506 5.18882C21.9805 5.18882 21.7104 5.30277 21.4403 5.53067C21.1702 5.75012 21.0351 5.98646 21.0351 6.23967H22.6304Z" fill="#2B62CA"/>
<path d="M27.7738 0.985414C27.9173 1.1289 27.989 1.37368 27.989 1.71974V1.92232C27.989 2.13333 27.9806 2.28948 27.9637 2.39077C27.9046 3.13354 27.6852 3.77081 27.3053 4.30256C26.9255 4.83432 26.4444 5.1002 25.862 5.1002C25.8029 5.1002 25.7481 5.05799 25.6974 4.97359C25.6552 4.88074 25.6341 4.76257 25.6341 4.61908C25.6341 4.47559 25.651 4.36587 25.6848 4.2899C25.727 4.20549 25.7692 4.15907 25.8114 4.15063C25.862 4.13375 25.9 4.12531 25.9253 4.12531C25.9506 4.11687 25.9971 4.09577 26.0646 4.06201C26.1321 4.0198 26.1912 3.96494 26.2418 3.89741C26.3769 3.72016 26.4528 3.44584 26.4697 3.07446C26.1827 3.03225 25.9675 2.93941 25.824 2.79592C25.689 2.65243 25.6214 2.34857 25.6214 1.88434C25.6214 1.54671 25.6636 1.29771 25.7481 1.13734C25.8325 0.968532 25.9591 0.858805 26.1279 0.808162C26.3051 0.749077 26.5752 0.719535 26.9382 0.719535C27.3011 0.719535 27.5797 0.808161 27.7738 0.985414Z" fill="#2B62CA"/>
<path d="M28.55 9.40489C28.3896 9.30361 28.3094 9.14323 28.3094 8.92378C28.3094 8.70432 28.4698 8.37092 28.7905 7.92357C28.8834 7.78008 29.0311 7.70834 29.2337 7.70834C29.4447 7.70834 29.7274 7.81384 30.0819 8.02486C30.4364 8.22743 30.7572 8.32872 31.0442 8.32872C31.559 8.32872 31.8165 8.22743 31.8165 8.02486C31.8165 7.86449 31.5337 7.74632 30.9682 7.67035C30.4364 7.59439 29.9089 7.39603 29.3856 7.07529C29.1408 6.92336 28.9382 6.68703 28.7779 6.36628C28.6175 6.0371 28.5373 5.64883 28.5373 5.20148C28.5373 3.86787 29.4531 3.20107 31.2847 3.20107C31.884 3.20107 32.5002 3.34456 33.1332 3.63154C33.4286 3.76658 33.5763 3.9354 33.5763 4.13797C33.5763 4.34054 33.4835 4.58954 33.2978 4.88496C33.1121 5.18038 32.9222 5.32809 32.7281 5.32809C32.6268 5.32809 32.4369 5.26479 32.1583 5.13818C31.8882 5.01157 31.5928 4.94827 31.2721 4.94827C30.7741 4.94827 30.5251 5.04111 30.5251 5.22681C30.5251 5.48002 30.812 5.64461 31.386 5.72058C31.9431 5.77966 32.4833 5.94003 33.0066 6.20169C33.2514 6.31986 33.4539 6.52665 33.6143 6.82207C33.7831 7.10905 33.8675 7.472 33.8675 7.91091C33.8675 8.34982 33.7831 8.72543 33.6143 9.03773C33.4539 9.34159 33.226 9.56948 32.9306 9.72141C32.3904 9.98307 31.711 10.1139 30.8922 10.1139C30.0819 10.1139 29.3012 9.87756 28.55 9.40489Z" fill="#2B62CA"/>
<path d="M2.4964 16.8109L7.18092 16.8362C9.62869 16.8362 11.781 17.7225 13.638 19.495C15.4949 21.2506 16.4234 23.4199 16.4234 26.0027C16.4234 28.5686 15.5118 30.7716 13.6886 32.6117C11.8823 34.4517 9.68777 35.3717 7.10495 35.3717H2.47108C1.44133 35.3717 0.799841 35.1607 0.546624 34.7387C0.34405 34.3842 0.242763 33.844 0.242763 33.1181V19.0392C0.242763 18.6341 0.251204 18.3386 0.268085 18.1529C0.301847 17.9673 0.386253 17.7478 0.521302 17.4946C0.757638 17.0388 1.416 16.8109 2.4964 16.8109ZM7.18092 30.8898C8.39636 30.8898 9.49364 30.4424 10.4727 29.5477C11.4519 28.6361 11.9414 27.4967 11.9414 26.1293C11.9414 24.7619 11.4603 23.6224 10.4981 22.7109C9.55272 21.7824 8.43857 21.3182 7.1556 21.3182H4.72471V30.8898H7.18092Z" fill="#2B62CA"/>
<path d="M17.692 28.7374C17.692 26.7117 18.401 25.0405 19.819 23.7237C21.2371 22.407 22.8576 21.7486 24.6808 21.7486C26.504 21.7486 28.1161 22.407 29.5173 23.7237C30.9184 25.0236 31.619 26.6864 31.619 28.7121C31.619 30.1132 31.256 31.3624 30.5301 32.4597C29.8042 33.5401 28.918 34.342 27.8714 34.8653C26.8416 35.3717 25.7696 35.6249 24.6555 35.6249C23.5413 35.6249 22.4609 35.3548 21.4143 34.8146C20.3677 34.2576 19.4814 33.4473 18.7555 32.3838C18.0465 31.3034 17.692 30.0879 17.692 28.7374ZM22.9843 30.5606C23.5245 30.9657 24.0731 31.1683 24.6302 31.1683C25.1872 31.1683 25.7443 30.9573 26.3014 30.5353C26.8585 30.1132 27.137 29.4886 27.137 28.6615C27.137 27.8343 26.8754 27.2181 26.352 26.813C25.8287 26.4078 25.2632 26.2053 24.6555 26.2053C24.0478 26.2053 23.4823 26.4163 22.9589 26.8383C22.4356 27.2603 22.174 27.8849 22.174 28.7121C22.174 29.5224 22.4441 30.1386 22.9843 30.5606Z" fill="#2B62CA"/>
<path d="M40.6743 22.0525C42.3624 22.0525 43.7635 22.7024 44.8777 24.0023C46.0087 25.2852 46.5742 26.8552 46.5742 28.7121V33.1687C46.5742 33.557 46.5574 33.8524 46.5236 34.055C46.5067 34.2407 46.4392 34.4517 46.321 34.688C46.0847 35.1438 45.4263 35.3717 44.3459 35.3717C43.1474 35.3717 42.4552 35.0594 42.2695 34.4348C42.1682 34.1478 42.1176 33.7174 42.1176 33.1434V28.6868C42.1176 27.9947 41.915 27.4545 41.5099 27.0662C41.1216 26.6779 40.5899 26.4838 39.9146 26.4838C39.2562 26.4838 38.716 26.6864 38.294 27.0915C37.8889 27.4967 37.6863 28.0284 37.6863 28.6868V33.1687C37.6863 33.557 37.6694 33.8524 37.6357 34.055C37.6188 34.2407 37.5428 34.4517 37.4078 34.688C37.1883 35.1438 36.5384 35.3717 35.458 35.3717C34.3945 35.3717 33.7445 35.1438 33.5082 34.688C33.39 34.4348 33.3141 34.2154 33.2803 34.0297C33.2634 33.8271 33.255 33.5317 33.255 33.1434V24.1795C33.255 23.8081 33.2634 23.5296 33.2803 23.3439C33.3141 23.1413 33.3985 22.9219 33.5335 22.6855C33.7699 22.2635 34.4198 22.0525 35.4833 22.0525C36.5131 22.0525 37.1461 22.2466 37.3824 22.6349C37.5512 22.9219 37.6357 23.2679 37.6357 23.6731C37.7032 23.5549 37.8551 23.3861 38.0914 23.1666C38.3278 22.9472 38.5557 22.7699 38.7751 22.6349C39.3491 22.2466 39.9821 22.0525 40.6743 22.0525Z" fill="#2B62CA"/>
<path d="M56.461 28.7121L59.8288 31.4975C60.2508 31.852 60.5125 32.1221 60.6137 32.3078C60.7319 32.4935 60.791 32.6707 60.791 32.8396C60.791 33.2447 60.5293 33.7933 60.006 34.4855C59.4321 35.1945 58.9256 35.549 58.4867 35.549C58.1153 35.549 57.6005 35.3042 56.9421 34.8146L56.6889 34.6374C56.3006 34.3167 55.7013 33.7596 54.891 32.9662C54.0807 32.1559 53.4646 31.5819 53.0425 31.2443V33.1941C53.0425 33.5823 53.0257 33.8777 52.9919 34.0803C52.975 34.266 52.8991 34.4855 52.764 34.7387C52.5445 35.1776 51.8946 35.397 50.8142 35.397C49.7507 35.397 49.1008 35.1692 48.8645 34.7134C48.7463 34.4601 48.6703 34.2407 48.6366 34.055C48.6197 33.8524 48.6112 33.557 48.6112 33.1687V18.001C48.6112 17.6127 48.6197 17.3258 48.6366 17.1401C48.6703 16.9375 48.7463 16.7096 48.8645 16.4564C49.1008 16.0006 49.7592 15.7727 50.8396 15.7727C51.6498 15.7727 52.2238 15.9162 52.5614 16.2032C52.8484 16.4395 53.0003 16.8109 53.0172 17.3173C53.0341 17.4693 53.0425 17.7056 53.0425 18.0263V26.0533C53.3464 25.8001 53.8022 25.3696 54.4099 24.7619C55.0345 24.1542 55.4988 23.7237 55.8026 23.4705L56.1065 23.2679C56.6973 22.8121 57.2038 22.5842 57.6258 22.5842C58.0478 22.5842 58.5289 22.9303 59.0691 23.6224C59.6262 24.2977 59.9047 24.8294 59.9047 25.2177C59.9047 25.606 59.5924 26.0618 58.9678 26.5851L56.461 28.7121Z" fill="#2B62CA"/>
<path d="M74.2839 27.1422C74.2839 28.1719 74.0223 28.94 73.499 29.4464C72.9925 29.936 72.427 30.1808 71.8024 30.1808H65.8011C65.8011 30.6534 66.0797 31.0501 66.6368 31.3709C67.1938 31.6916 67.7509 31.852 68.308 31.852C69.2871 31.852 70.0552 31.7507 70.6123 31.5481L70.8908 31.4469C71.296 31.2612 71.6336 31.1683 71.9037 31.1683C72.4439 31.1683 72.9081 31.5481 73.2964 32.3078C73.5158 32.7636 73.6256 33.1519 73.6256 33.4726C73.6256 34.975 71.8277 35.7262 68.232 35.7262C66.9828 35.7262 65.8687 35.5152 64.8896 35.0932C63.9273 34.6543 63.1761 34.0803 62.6359 33.3713C61.5724 32.0039 61.0407 30.4762 61.0407 28.7881C61.0407 26.661 61.7243 24.9645 63.0917 23.6984C64.476 22.4154 66.1979 21.774 68.2574 21.774C70.6038 21.774 72.3257 22.6011 73.423 24.2555C73.9969 25.1333 74.2839 26.0955 74.2839 27.1422ZM68.941 27.8765C69.5825 27.8765 69.9033 27.6064 69.9033 27.0662C69.9033 26.6779 69.7513 26.3656 69.4475 26.1293C69.1605 25.893 68.7385 25.7748 68.1814 25.7748C67.6412 25.7748 67.101 26.0027 66.5608 26.4585C66.0206 26.8974 65.7505 27.3701 65.7505 27.8765H68.941Z" fill="#2B62CA"/>
<path d="M87.577 22.2044C88.573 22.6433 89.071 23.1751 89.071 23.7997C89.071 24.1036 89.0035 24.3905 88.8685 24.6606C88.7334 24.9307 88.6659 25.0742 88.6659 25.0911L82.0316 39.9296C81.8965 40.2504 81.7784 40.4952 81.6771 40.664C81.5927 40.8328 81.4492 40.9932 81.2466 41.1451C81.044 41.297 80.7908 41.373 80.487 41.373C80.1831 41.373 79.7357 41.2464 79.1449 40.9932C78.1489 40.5542 77.6509 40.0309 77.6509 39.4232C77.6509 39.0181 78.4612 37.0852 80.0818 33.6245L75.0428 25.1417C74.7052 24.5847 74.5363 24.1711 74.5363 23.901C74.5363 23.3608 74.9921 22.8206 75.9037 22.2804C76.4777 21.9428 76.925 21.774 77.2458 21.774C77.5665 21.774 77.8282 21.8415 78.0307 21.9765C78.2333 22.1116 78.3768 22.2551 78.4612 22.407C78.5625 22.542 79.0267 23.327 79.8539 24.7619C80.698 26.1799 81.4998 27.5051 82.2595 28.7374C82.3439 28.4673 82.7997 27.4291 83.6269 25.6229C84.454 23.7997 84.8929 22.829 84.9436 22.7109C85.0111 22.5927 85.1124 22.4492 85.2474 22.2804C85.4669 21.9934 85.7708 21.8499 86.159 21.8499C86.5642 21.8499 87.0368 21.9681 87.577 22.2044Z" fill="#2B62CA"/>
</svg>
