<svg width="64" height="25" viewBox="0 0 64 25" fill="none" xmlns="http://www.w3.org/2000/svg">
<path d="M3.2992 19.7159C3.93366 20.2004 4.72674 20.5901 5.67844 20.885C6.63015 21.18 7.56069 21.3274 8.47008 21.3274C10.1831 21.3274 11.4944 20.9061 12.4037 20.0635C13.3131 19.2419 13.7678 17.9991 13.7678 16.3349V14.3127C13.4718 14.8182 13.0488 15.3027 12.4989 15.7662C11.949 16.2085 11.304 16.5772 10.5638 16.8721C9.82358 17.1459 9.05164 17.2828 8.24797 17.2828C6.7041 17.2828 5.30829 16.9142 4.06052 16.1769C2.81273 15.4396 1.81876 14.418 1.0786 13.1119C0.359533 11.8058 0 10.3207 0 8.65652C0 6.97131 0.359533 5.48619 1.0786 4.20117C1.79766 2.89512 2.77046 1.87344 3.99699 1.13613C5.24478 0.39885 6.63001 0.0302124 8.15269 0.0302124C9.42161 0.0302124 10.5425 0.314591 11.5155 0.883347C12.5095 1.43105 13.2602 2.0314 13.7678 2.68441V0.377758H17.0353V15.9555C17.0353 17.9356 16.6335 19.526 15.8298 20.7267C15.0473 21.9484 14.0004 22.8332 12.6891 23.3809C11.399 23.9496 9.99261 24.234 8.46988 24.234C7.28554 24.234 6.10118 24.0444 4.91681 23.6652C3.75363 23.3071 2.8125 22.8332 2.09344 22.2433L3.2992 19.7159ZM8.5969 3.00067C7.58175 3.00067 6.67235 3.25345 5.8687 3.759C5.08619 4.24351 4.4623 4.9176 3.99702 5.78127C3.55291 6.62388 3.33085 7.58235 3.33085 8.65667C3.33085 9.731 3.55291 10.6895 3.99702 11.5321C4.4623 12.3747 5.08619 13.0488 5.8687 13.5543C6.67235 14.0388 7.58175 14.2811 8.5969 14.2811C9.65434 14.2811 10.5743 14.0388 11.3568 13.5543C12.1605 13.0698 12.7844 12.4063 13.2285 11.5637C13.6726 10.7 13.8947 9.73104 13.8947 8.65681C13.8947 7.56142 13.6726 6.59247 13.2285 5.74995C12.7844 4.90742 12.1605 4.24387 11.3568 3.75929C10.5743 3.25373 9.65434 3.00095 8.5969 3.00095V3.00067Z" fill="url(#paint0_linear)"/>
<path d="M34.6465 14.7879H34.6148C33.938 15.4409 33.0075 16.0202 31.8231 16.5257C30.6388 17.0313 29.4016 17.2841 28.1115 17.2841C26.3773 17.2841 24.8441 16.926 23.5117 16.2097C22.2005 15.4725 21.1748 14.4719 20.4345 13.208C19.6943 11.923 19.3242 10.4695 19.3242 8.84754C19.3242 6.99381 19.7155 5.41388 20.498 4.10775C21.2805 2.78064 22.3168 1.76951 23.607 1.07434C24.897 0.358113 26.3034 0 27.8262 0C29.222 0 30.491 0.347576 31.6331 1.04273C32.7751 1.71681 33.6845 2.65421 34.3613 3.85494C35.038 5.05564 35.3764 6.45649 35.3764 8.05748L35.3447 9.44778H22.592C22.7824 10.9434 23.3957 12.1336 24.432 13.0184C25.4894 13.8821 26.8218 14.3139 28.4291 14.3139C29.5923 14.3139 30.5334 14.1033 31.2525 13.682C31.9716 13.2396 32.5637 12.8183 33.029 12.4181L34.6465 14.7879ZM27.8259 3.00195C26.5781 3.00195 25.489 3.29686 24.5584 3.88669C23.6279 4.45545 23.0145 5.44549 22.7185 6.85683H32.0451V6.63564C31.9816 5.91942 31.7384 5.28746 31.3155 4.73978C30.9136 4.19208 30.4061 3.77077 29.7927 3.47586C29.1794 3.15987 28.5238 3.00187 27.8259 3.00187L27.8259 3.00195Z" fill="url(#paint1_linear)"/>
<path d="M46.9927 3.88463C46.7812 3.77931 46.5168 3.69504 46.1996 3.63185C45.9035 3.54758 45.5863 3.50546 45.2479 3.50546C44.5711 3.50546 43.905 3.68451 43.2493 4.04262C42.5937 4.37966 42.0439 4.87469 41.5997 5.52772C41.1768 6.15967 40.9653 6.91802 40.9653 7.80276V16.9663H37.666V0.377278H40.9653V3.5056C41.4305 2.49446 42.1285 1.66239 43.059 1.00938C44.0107 0.356359 45.0047 0.0298462 46.0409 0.0298462C46.8234 0.0298462 47.4262 0.135169 47.8491 0.345814L46.9927 3.88463Z" fill="url(#paint2_linear)"/>
<path d="M64 0.3787V16.9677H60.7008V14.4083C60.1932 15.1034 59.4424 15.7564 58.4484 16.3673C57.4545 16.9782 56.3019 17.2837 54.9907 17.2837C53.5948 17.2837 52.3153 16.915 51.152 16.1778C50.01 15.4405 49.1006 14.4188 48.4238 13.1127C47.7471 11.8067 47.4087 10.311 47.4087 8.62574C47.4087 6.94047 47.7576 5.45535 48.4556 4.17039C49.1535 2.86434 50.1157 1.8532 51.3424 1.13698C52.569 0.399705 53.9648 0.0310669 55.5298 0.0310669C56.693 0.0310669 57.7081 0.283845 58.5753 0.789404C59.4635 1.29496 60.172 1.88479 60.7007 2.55889V0.378641L64 0.3787ZM55.7519 14.2817C56.767 14.2817 57.6553 14.0395 58.4167 13.555C59.178 13.0494 59.7702 12.3753 60.1932 11.5327C60.6161 10.669 60.8276 9.70007 60.8276 8.62583C60.8276 7.57257 60.6161 6.62463 60.1932 5.78201C59.7702 4.93939 59.178 4.27584 58.4167 3.79135C57.6553 3.28579 56.767 3.03301 55.7519 3.03301C54.7791 3.03301 53.912 3.27527 53.1506 3.75977C52.3892 4.24428 51.7971 4.90783 51.3741 5.75043C50.9511 6.59303 50.7396 7.55149 50.7396 8.62583C50.7396 9.70016 50.9511 10.6691 51.3741 11.5327C51.7971 12.3753 52.3892 13.0494 53.1506 13.555C53.912 14.0395 54.7791 14.2817 55.7519 14.2817Z" fill="url(#paint3_linear)"/>
<defs>
<linearGradient id="paint0_linear" x1="33.5347" y1="-0.346839" x2="33.5347" y2="25.6602" gradientUnits="userSpaceOnUse">
<stop stop-color="#A35AD7"/>
<stop offset="1" stop-color="#9A45D7"/>
</linearGradient>
<linearGradient id="paint1_linear" x1="33.5347" y1="-0.348147" x2="33.5347" y2="25.6589" gradientUnits="userSpaceOnUse">
<stop stop-color="#A35AD7"/>
<stop offset="1" stop-color="#9A45D7"/>
</linearGradient>
<linearGradient id="paint2_linear" x1="33.5348" y1="-0.348135" x2="33.5348" y2="25.6589" gradientUnits="userSpaceOnUse">
<stop stop-color="#A35AD7"/>
<stop offset="1" stop-color="#9A45D7"/>
</linearGradient>
<linearGradient id="paint3_linear" x1="33.5348" y1="-0.348113" x2="33.5348" y2="25.6589" gradientUnits="userSpaceOnUse">
<stop stop-color="#A35AD7"/>
<stop offset="1" stop-color="#9A45D7"/>
</linearGradient>
</defs>
</svg>
