<svg width="263" height="42" viewBox="0 0 263 42" fill="none" xmlns="http://www.w3.org/2000/svg">
<path d="M21.9482 0L10.9741 19.0073L0 38.0149H21.9482H43.8964L42.4008 35.4241H23.4583H4.41141L13.9348 18.9289L23.4059 2.52487L21.9482 0Z" fill="#0F854E"/>
<path d="M24.9561 5.0249L32.9834 18.9288L42.5069 35.424H40.589L44.0792 41.4696L54.6001 23.247L65.1206 5.0249H44.0792H24.9561Z" fill="#0F854E"/>
<path d="M100.906 38.0022L93.6324 25.1547H90.515V38.0022H83.9023V5.03333H96.2775C98.8281 5.03333 101.001 5.48991 102.796 6.40309C104.591 7.28478 105.929 8.4971 106.81 10.0401C107.724 11.5515 108.18 13.2519 108.18 15.1412C108.18 17.314 107.55 19.282 106.291 21.0454C105.031 22.7773 103.158 23.9739 100.67 24.6351L108.558 38.0022H100.906ZM90.515 20.2424H96.0413C97.8362 20.2424 99.1744 19.8016 100.056 18.9199C100.938 18.0382 101.379 16.8259 101.379 15.2829C101.379 13.74 100.938 12.5434 100.056 11.6932C99.1744 10.8115 97.8362 10.3707 96.0413 10.3707H90.515V20.2424Z" fill="#0F854E"/>
<path d="M117.571 5.03333V38.0022H110.958V5.03333H117.571Z" fill="#0F854E"/>
<path d="M132.252 38.333C129.953 38.333 127.875 37.9393 126.017 37.1521C124.191 36.3649 122.742 35.2313 121.672 33.7513C120.601 32.2714 120.05 30.5237 120.019 28.5084H127.104C127.198 29.8939 127.67 30.9961 128.521 31.8148C129.402 32.6335 130.599 33.0428 132.11 33.0428C133.653 33.0428 134.866 32.665 135.747 31.9092C136.629 31.1535 137.07 30.1459 137.07 28.8863C137.07 27.9101 136.771 27.1072 136.172 26.4774C135.574 25.8476 134.818 25.3595 133.905 25.0132C133.023 24.6353 131.795 24.2259 130.221 23.7851C128.08 23.1553 126.332 22.5413 124.978 21.943C123.656 21.3132 122.506 20.3843 121.53 19.1562C120.585 17.8967 120.113 16.2278 120.113 14.1495C120.113 12.1972 120.601 10.4968 121.577 9.04832C122.553 7.59983 123.923 6.49772 125.687 5.74199C127.45 4.95477 129.465 4.56116 131.732 4.56116C135.133 4.56116 137.888 5.39561 139.998 7.06452C142.139 8.70194 143.32 11.0006 143.541 13.9606H136.267C136.204 12.7325 135.716 11.7564 134.803 11.0321C133.921 10.2764 132.74 9.89852 131.26 9.89852C129.969 9.89852 128.93 10.2449 128.143 10.9377C127.387 11.5989 127.009 12.5908 127.009 13.9133C127.009 14.795 127.292 15.535 127.859 16.1333C128.458 16.7001 129.182 17.1724 130.032 17.5503C130.914 17.8967 132.142 18.306 133.716 18.7784C135.857 19.4082 137.605 20.0379 138.959 20.6677C140.313 21.2975 141.478 22.2422 142.454 23.5017C143.431 24.7613 143.919 26.4144 143.919 28.4612C143.919 30.2246 143.462 31.862 142.549 33.3735C141.636 34.8849 140.297 36.0972 138.534 37.0104C136.771 37.8921 134.677 38.333 132.252 38.333V38.333Z" fill="#0F854E"/>
<path d="M161.715 38.333C158.629 38.333 155.795 37.6087 153.213 36.1602C150.631 34.7117 148.584 32.7122 147.073 30.1616C145.561 27.5795 144.806 24.6668 144.806 21.4234C144.806 18.2116 145.561 15.3303 147.073 12.7797C148.584 10.1977 150.631 8.18238 153.213 6.73389C155.795 5.2854 158.629 4.56116 161.715 4.56116C164.833 4.56116 167.667 5.2854 170.217 6.73389C172.799 8.18238 174.83 10.1977 176.31 12.7797C177.822 15.3303 178.577 18.2116 178.577 21.4234C178.577 24.6668 177.822 27.5795 176.31 30.1616C174.83 32.7122 172.799 34.7117 170.217 36.1602C167.635 37.6087 164.801 38.333 161.715 38.333ZM161.715 32.2399C163.699 32.2399 165.447 31.799 166.958 30.9173C168.47 30.0042 169.65 28.7446 170.501 27.1387C171.351 25.5012 171.776 23.5962 171.776 21.4234C171.776 19.2507 171.351 17.3614 170.501 15.7554C169.65 14.118 168.47 12.8585 166.958 11.9768C165.447 11.0951 163.699 10.6543 161.715 10.6543C159.731 10.6543 157.968 11.0951 156.425 11.9768C154.914 12.8585 153.733 14.118 152.883 15.7554C152.032 17.3614 151.607 19.2507 151.607 21.4234C151.607 23.5962 152.032 25.5012 152.883 27.1387C153.733 28.7446 154.914 30.0042 156.425 30.9173C157.968 31.799 159.731 32.2399 161.715 32.2399V32.2399Z" fill="#0F854E"/>
<path d="M181.356 38.2384C180.663 38.2384 180.081 38.0023 179.609 37.5299C179.168 37.0576 178.947 36.4751 178.947 35.7823C178.947 35.0896 179.168 34.5228 179.609 34.0819C180.081 33.6096 180.663 33.3734 181.356 33.3734C182.017 33.3734 182.568 33.6096 183.009 34.0819C183.482 34.5228 183.718 35.0896 183.718 35.7823C183.718 36.4751 183.482 37.0576 183.009 37.5299C182.568 38.0023 182.017 38.2384 181.356 38.2384Z" fill="#0F854E"/>
<path d="M195.944 4.98633C199.597 4.98633 202.73 5.6476 205.344 6.97013C207.957 8.29266 209.957 10.1977 211.342 12.6854C212.728 15.173 213.421 18.1329 213.421 21.5652C213.421 24.966 212.728 27.9102 211.342 30.3978C209.957 32.854 207.957 34.7433 205.344 36.0658C202.73 37.3569 199.597 38.0024 195.944 38.0024H186.167V4.98633H195.944ZM195.944 35.4046C200.542 35.4046 204.037 34.1922 206.43 31.7676C208.855 29.3115 210.067 25.9107 210.067 21.5652C210.067 17.2198 208.855 13.819 206.43 11.3628C204.037 8.90669 200.542 7.67863 195.944 7.67863H189.473V35.4046H195.944Z" fill="#0F854E"/>
<path d="M219.599 7.58415V20.0537H232.116V22.6988H219.599V35.3573H233.533V38.0024H216.293V4.93909H233.533V7.58415H219.599Z" fill="#0F854E"/>
<path d="M237.776 4.98633L248.545 34.271L259.456 4.98633H262.999L250.482 38.0024H246.703L234.187 4.98633H237.776Z" fill="#0F854E"/>
</svg>
