<svg width="73" height="27" viewBox="0 0 73 27" fill="none" xmlns="http://www.w3.org/2000/svg">
<path d="M0 0L15.296 1.504L9.696 14.752L4.672 14.368L2.816 20.896L1.12 20.736L0 0ZM8.032 10.72L10.24 5.056H3.328L4.32 10.464L8.032 10.72Z" fill="#AC2E30"/>
<path d="M15.079 21.312L13.767 7.84L26.023 7.456L25.927 16.16L17.671 15.968L17.639 18.688L24.135 18.912L24.295 20.448L15.079 21.312ZM17.863 13.728L23.015 13.504L22.471 10.08L18.023 9.952L17.863 13.728Z" fill="#AC2E30"/>
<path d="M30.5807 0.831999L32.0848 20.864L28.7887 21.152L28.5327 0.991999L30.5807 0.831999Z" fill="#AC2E30"/>
<path d="M35.2977 21.312L33.9857 7.84L46.2417 7.456L46.1458 16.16L37.8898 15.968L37.8577 18.688L44.3537 18.912L44.5138 20.448L35.2977 21.312ZM38.0817 13.728L43.2337 13.504L42.6898 10.08L38.2417 9.952L38.0817 13.728Z" fill="#AC2E30"/>
<path d="M52.3995 7.2L52.2715 9.952L54.3515 10.656L53.6155 22.816L48.6875 22.336L48.3035 24.8L55.7915 26.304L57.9035 7.36L52.3995 7.2ZM57.5835 5.632H54.7995L54.6715 2.336L57.8395 2.528L57.5835 5.632Z" fill="#AC2E30"/>
<path d="M72.5855 7.904L71.3055 21.312L61.3535 20.96V20.928L59.9775 7.904H72.5855ZM69.8335 11.136L62.7935 10.656L64.0095 18.368L68.7135 18.976L69.8335 11.136Z" fill="#AC2E30"/>
</svg>
